<svg width="202" height="106" viewBox="0 0 202 106" xmlns="http://www.w3.org/2000/svg">
  <g transform="translate(2.501 2.81)" stroke="#0E0A29" stroke-width="4" fill="none" fill-rule="evenodd" stroke-linejoin="round">
    <path d="M76.96 100.965c49.192.072 106.167 1.352 117.066-20.876 10.898-22.228-9.696-47.679-34.94-47.679C156.729-.217 114.495-6.956 92.655 6.587c-14.56 9.028-23.85 24.017-27.87 44.969C62.022 38.64 53.64 33.473 39.64 36.054c-14 2.58-19.977 12.167-17.931 28.76C7.236 66.52 0 72.96 0 84.133c0 16.76 27.769 16.76 76.96 16.833z" fill="#222043"/>
    <path d="M159.12 32.551c-10.68 0-34.733 9.274-27.152 26.892 7.582 17.619 32.917 4.144 21.972-10.619" stroke-linecap="round"/>
  </g>
</svg>
