<svg width="100" height="65" viewBox="0 0 100 65" xmlns="http://www.w3.org/2000/svg">
  <g transform="translate(2.458 5.266)" fill="none">
    <path d="M46.588 21.82l1.023.01c11.206 0 21.24 1.549 27.91 3.977v11.955c.165-.376.333-.743.503-1.098a4.73 4.73 0 0 1-.098-2.79c.433-1.731 1.66-2.694 2.791-2.15.224.12.422.282.583.477l.115.151a7.327 7.327 0 0 1 .237 8.624c0 .266-5.68 6.825-6.978 6.978-.614.161.24-3.352 1.6-7.078-6.645 2.18-16.174 3.547-26.663 3.547A94.24 94.24 0 0 1 23.82 41.69c1.09 3.505 1.63 6.453.988 6.236-.673-.228-2.269-1.884-3.839-3.685l-.409-.472c-1.83-2.132-3.511-4.308-3.511-4.453-3.01-4.884.227-7.916.807-8.402l.054-.044c.02-.017.032-.025.032-.025h.07a1.94 1.94 0 0 1 .865-.46c1.326-.266 2.707.976 3.098 2.79a3.866 3.866 0 0 1-.321 2.708c.234.52.462 1.063.684 1.616V24.886A93.682 93.682 0 0 1 47.61 21.83z" fill="#050606"/>
    <path d="M48.376 0c.361 0 .697.174.905.463l.072.113 2.065 3.475.963.097 2.666-2.986a1.116 1.116 0 0 1 1.78.33l.048.117 1.395 3.823c.214.056.428.118.638.186l.311.107 3.168-2.386c.323-.24.749-.288 1.117-.126.33.145.57.432.658.776l.025.132.698 4.019.88.488 3.558-1.688a1.075 1.075 0 0 1 1.102.097c.302.206.49.538.515.897l.002.136-.14 4.089.754.642 3.81-.935c.387-.1.798.017 1.074.307.25.27.368.634.329.995l-.022.135-.92 3.991.627.782 3.908-.14a1.13 1.13 0 0 1 1.004.53c.189.306.236.675.136 1.015l-.052.144-1.619 3.712.46.907 3.852.642c.396.07.728.34.88.712.14.34.119.722-.054 1.041l-.072.117-2.098 3.03c1.934.88 6.838 3.843 4.22 10.45 0 .378-6.978 12.742-9.253 13.956-1.493.74.377-9.769 2.107-17.36a4.517 4.517 0 0 0-.618-.416 3.56 3.56 0 0 1-.666.192 60.859 60.859 0 0 1-4.272 1.887c-.116 2.555-.93 5.794-3.753 8.425 1.555 3.025.442 7.258-2.86 10.026-3.262 2.76-8.103 2.003-10.82 0 1.698-3.004 4.088-4.743 6.127-7.526l-6.51.677.07-.308c1.471-6.06 7.11-6.73 10.7-5.524 1.135-.807 2.304-2.126 2.743-4.246-23.718 7.435-46.842-.821-52.505-3.118-.093.09-.178.179-.253.266a139.66 139.66 0 0 1 1.318 3.595l.216.618.107.31.212.619.209.619c1.961 5.87 3.387 11.435 2.152 11.027-2.4-.851-11.164-12.044-11.164-12.434-3.603-6.2.924-9.86 2.673-10.977-2.13-1.188-6.437-4.288-6.849-10.087-3.334-.644-5.976-4.123-6.124-8.422-.168-4.27 3.41-7.62 6.66-8.526 1.322 3.187 1.222 6.14 2.16 9.46L12.3 7.423c4.162 4.967 1.187 9.944-2.022 12.07-.113 1.553.23 3.582 2.078 5.45l.068-.024.129-.032 3.907-.67.46-.907-1.618-3.712a1.214 1.214 0 0 1 .084-1.158 1.13 1.13 0 0 1 .858-.527l.133-.004 3.935.154c.13-.177.267-.354.405-.526l.21-.256-.908-3.977a1.242 1.242 0 0 1 .307-1.13 1.1 1.1 0 0 1 .945-.333l.13.026 3.81.935.753-.642-.14-4.09c-.018-.41.177-.8.517-1.032.285-.208.652-.26.98-.148l.122.05 3.559 1.69.865-.49.6-4.074a1.2 1.2 0 0 1 .698-.907c.327-.144.7-.123 1.005.052l.111.073L37.45 5.67l.935-.293 1.396-3.824c.132-.383.455-.669.85-.754.35-.072.71.03.97.268l.092.095 2.679 2.986.963-.097L47.399.576C47.596.22 47.97 0 48.376 0z" fill="#B53F27"/>
    <g transform="translate(34.696 28.589)">
      <g transform="translate(16.68)">
        <path d="M1.365 1.743s3.572-3.922 7.159 0c0 0 2.79 5.233 0 7.843 0 0-4.606 3.67-7.16 0 0 0-3.07-2.875 0-7.843z" fill="#050606"/>
        <path d="M5.51 3.194c0 1.535-.908 2.791-2.01 2.791-1.103 0-2.01-1.242-2.01-2.79 0-1.55.893-2.792 2.01-2.792 1.116 0 2.01 1.27 2.01 2.791z" fill="#FFFFFF"/>
      </g>
      <g transform="translate(0 .067)">
        <path d="M2.05.602s6.155-2.708 7.83 3.363c0 0 1.758 7.075-5.052 7.466 0 0-8.666-1.66-2.777-10.83z" fill="#050606"/>
        <path d="M5.135 3.24c0 1.562-.921 2.79-2.065 2.79C1.925 6.03.99 4.746.99 3.24c0-1.508.935-2.792 2.08-2.792 1.144 0 2.065 1.214 2.065 2.791z" fill="#FFFFFF"/>
      </g>
    </g>
  </g>
</svg>
