<svg width="159" height="117" viewBox="0 0 159 117" xmlns="http://www.w3.org/2000/svg">
  <g transform="translate(.56 .453)" fill="none">
    <path d="M104.204.005a2.128 2.128 0 0 1 1.748 1.142l2.53 4.814.95.162 3.969-3.706a2.128 2.128 0 0 1 2.034-.507c.716.197 1.28.75 1.487 1.462l1.546 5.223.894.343 4.635-2.861a2.146 2.146 0 0 1 3.268 1.625l.494 5.43.795.5 5.11-1.91a2.152 2.152 0 0 1 2.885 2.239l-.575 5.417.687.65 5.382-.875a2.128 2.128 0 0 1 1.963.707c.494.554.656 1.33.435 2.045l-1.618 5.197c.183.248.368.507.558.783l5.436.193a2.128 2.128 0 0 1 1.785 1.082c.368.651.378 1.44.023 2.088l-2.595 4.778.389.878 5.291 1.253a2.154 2.154 0 0 1 1.545 1.405c.245.705.1 1.488-.38 2.06l-3.49 4.184c.077.312.147.62.212.926l4.96 2.266a2.16 2.16 0 0 1 1.24 1.681 2.137 2.137 0 0 1-.775 1.944l-4.242 3.43.025.94 4.422 3.19c.606.43.935 1.144.888 1.91a2.134 2.134 0 0 1-1.143 1.748l-4.814 2.529-.129.764-.032.185 3.705 3.971c.515.54.705 1.315.506 2.033a2.146 2.146 0 0 1-1.462 1.488l-5.22 1.545-.343.898 2.86 4.631a2.146 2.146 0 0 1-1.627 3.27l-5.43.492-.5.797 1.91 5.107a2.152 2.152 0 0 1-2.237 2.886l-5.42-.576c-.214.232-.43.462-.65.689l.869 5.38a2.134 2.134 0 0 1-.708 1.965 2.126 2.126 0 0 1-2.046.433l-5.197-1.617c-.248.184-.507.37-.783.56l-.192 5.435a2.155 2.155 0 0 1-1.083 1.785 2.143 2.143 0 0 1-2.088.022l-4.778-2.594-.878.39-1.253 5.292a2.158 2.158 0 0 1-1.405 1.533 2.115 2.115 0 0 1-2.06-.38l-4.184-3.488c-.312.074-.62.145-.926.21l-2.266 4.96a2.156 2.156 0 0 1-1.681 1.241 2.14 2.14 0 0 1-1.944-.776l-3.428-4.24-.94.025-3.19 4.422a2.153 2.153 0 0 1-1.891.887 2.13 2.13 0 0 1-1.748-1.143l-2.526-4.816-.766-.13a72.32 72.32 0 0 1-.185-.032l-3.97 3.695a2.128 2.128 0 0 1-2.032.507 2.146 2.146 0 0 1-1.489-1.461l-1.544-5.22-.895-.345-4.634 2.861a2.146 2.146 0 0 1-3.27-1.625l-.492-5.43-.795-.5-5.11 1.91a2.152 2.152 0 0 1-2.886-2.237l.555-5.243h.966l-.565 5.34a1.19 1.19 0 0 0 1.597 1.24l5.561-2.08.692.449.898.558.537 5.91a1.187 1.187 0 0 0 1.807.89l5.042-3.111 1.778.685 1.68 5.678c.116.393.427.698.822.807.396.11.82.004 1.119-.28l4.327-4.028 1.023.183.413.066.438.064 2.758 5.249c.188.363.552.602.96.629.411.028.808-.157 1.05-.49l3.469-4.812 1.642-.042.242-.01 3.73 4.615a1.194 1.194 0 0 0 2.005-.26l2.468-5.404.238-.047c.45-.092.9-.195 1.365-.312l.236-.06 4.56 3.805c.31.263.742.343 1.132.208.388-.131.683-.451.782-.849l1.362-5.759 1.123-.492.612-.282 5.205 2.825a1.186 1.186 0 0 0 1.752-.999l.208-5.92.2-.137c.416-.282.795-.552 1.148-.816l.196-.148 5.664 1.761c.391.124.82.034 1.127-.237a1.18 1.18 0 0 0 .394-1.088l-.944-5.858.65-.677.645-.696 5.896.628a1.19 1.19 0 0 0 1.239-1.597l-2.08-5.565.538-.83.469-.757 5.903-.536a1.187 1.187 0 0 0 .899-1.809l-3.116-5.047.212-.519.478-1.252 5.676-1.682c.393-.115.698-.425.808-.82a1.17 1.17 0 0 0-.28-1.12l-4.04-4.327.185-1.024.067-.411.063-.44 5.249-2.758a1.17 1.17 0 0 0 .629-.959 1.21 1.21 0 0 0-.355-.957l-.133-.113-4.814-3.469-.043-1.643-.009-.24 4.615-3.73a1.18 1.18 0 0 0 .427-1.072 1.197 1.197 0 0 0-.687-.935l-5.404-2.466-.049-.24c-.093-.456-.197-.91-.31-1.362l-.06-.238 3.802-4.555c.266-.315.346-.747.21-1.135a1.202 1.202 0 0 0-.858-.782l-5.758-1.364-.553-1.257-.223-.478 2.826-5.205a1.184 1.184 0 0 0-.017-1.155 1.172 1.172 0 0 0-.982-.596l-5.92-.21-.137-.2c-.19-.277-.371-.537-.552-.785l-.414-.558 1.763-5.664a1.17 1.17 0 0 0-.238-1.127 1.177 1.177 0 0 0-1.087-.394l-5.859.955-.676-.65-.698-.646.628-5.897a1.19 1.19 0 0 0-1.597-1.239l-5.563 2.08-.69-.448-.898-.559-.537-5.901a1.187 1.187 0 0 0-1.809-.9l-5.04 3.114-1.778-.688-1.68-5.677a1.187 1.187 0 0 0-.822-.807 1.17 1.17 0 0 0-1.119.279l-4.328 4.039-1.235-.218-.638-.095-2.76-5.249a1.17 1.17 0 0 0-.96-.629 1.195 1.195 0 0 0-1.048.488L99.62 6.264l-1.641.044-.24.01-3.73-4.616a1.18 1.18 0 0 0-1.072-.427 1.197 1.197 0 0 0-.934.687l-2.467 5.403-.916.196-.923.222-4.561-3.803a1.159 1.159 0 0 0-1.131-.208c-.39.133-.686.457-.782.858l-1.364 5.759-1.257.553-.477.223-5.207-2.827a1.184 1.184 0 0 0-1.155.015 1.172 1.172 0 0 0-.596.984l-.208 5.92-.202.137c-.276.188-.537.371-.785.55l-.558.416-5.664-1.763a1.17 1.17 0 0 0-1.126.238 1.177 1.177 0 0 0-.395 1.087l.956 5.859-.651.676-.646.696-5.895-.626a1.19 1.19 0 0 0-1.24 1.597l2.08 5.561-.538.834-.47.757-5.901.534a1.187 1.187 0 0 0-.9 1.809l3.11 5.036h-1.129l-2.798-4.531a2.146 2.146 0 0 1 1.625-3.268l5.43-.494.5-.795-1.91-5.11a2.152 2.152 0 0 1 2.239-2.886l5.419.576c.216-.233.433-.463.65-.688l-.877-5.38a2.134 2.134 0 0 1 .707-1.966 2.126 2.126 0 0 1 2.045-.433l5.197 1.618c.25-.184.509-.368.783-.56l.193-5.434a2.127 2.127 0 0 1 1.083-1.785 2.137 2.137 0 0 1 2.087-.024l4.778 2.596.878-.39 1.253-5.292a2.16 2.16 0 0 1 1.405-1.543 2.115 2.115 0 0 1 2.061.38l4.183 3.488c.312-.074.62-.145.928-.21l2.264-4.96A2.16 2.16 0 0 1 92.809.322a2.141 2.141 0 0 1 1.944.776l3.428 4.241.94-.025 3.19-4.422a2.156 2.156 0 0 1 1.891-.887h.002z" fill="#F5A78F"/>
    <path d="M46.638 83.464l-1.163-.838-.009-.357 1.113-.899a.421.421 0 0 0-.09-.708l-1.305-.595a8.147 8.147 0 0 0-.079-.348l.917-1.098a.423.423 0 0 0-.229-.678l-1.388-.329c-.049-.11-.096-.222-.147-.329l.683-1.255a.418.418 0 0 0-.353-.62l-1.43-.05a8.135 8.135 0 0 0-.207-.293l.424-1.365a.415.415 0 0 0-.084-.4.415.415 0 0 0-.385-.14l-1.414.232a12.858 12.858 0 0 0-.258-.244l.151-1.425a.42.42 0 0 0-.564-.436l-1.342.501c-.098-.065-.2-.127-.3-.19l-.13-1.424a.418.418 0 0 0-.637-.318l-1.217.751-.337-.129-.407-1.371a.418.418 0 0 0-.685-.187l-1.045.975a9.14 9.14 0 0 0-.356-.06l-.663-1.265a.421.421 0 0 0-.712-.05l-.837 1.161-.356.01-.9-1.114a.421.421 0 0 0-.708.09l-.595 1.305c-.116.024-.233.05-.348.079l-1.098-.917a.423.423 0 0 0-.678.229l-.328 1.388c-.112.049-.223.096-.33.147l-1.255-.683a.418.418 0 0 0-.619.354l-.05 1.428c-.1.068-.198.137-.294.208l-1.365-.424a.415.415 0 0 0-.4.084.415.415 0 0 0-.139.385l.231 1.414c-.081.083-.163.17-.244.258l-1.425-.151a.42.42 0 0 0-.436.564l.501 1.343-.19.3-1.424.128a.418.418 0 0 0-.318.638l.751 1.217-.129.337-1.371.407a.418.418 0 0 0-.187.685l.975 1.045a5.938 5.938 0 0 0-.06.356l-1.265.663a.421.421 0 0 0-.05.712l1.161.837.01.357-1.114.899a.421.421 0 0 0 .09.708l1.305.595c.024.118.05.233.079.348l-.917 1.098a.411.411 0 0 0-.074.401c.044.138.16.243.3.278l1.39.327c.047.112.095.223.145.33l-.681 1.255a.418.418 0 0 0 .353.619l1.428.05c.068.1.138.198.209.294l-.425 1.365a.415.415 0 0 0 .084.4.415.415 0 0 0 .385.14l1.413-.232c.085.084.17.163.26.244l-.152 1.425a.42.42 0 0 0 .564.436l1.342-.501c.098.065.199.127.3.19l.13 1.424a.418.418 0 0 0 .638.318l1.217-.751.337.129.405 1.371a.418.418 0 0 0 .687.187l1.043-.972c.119.02.237.043.356.06l.665 1.265a.421.421 0 0 0 .71.05l.838-1.161c.118-.003.237-.005.356-.01l.899 1.112a.421.421 0 0 0 .708-.09l.596-1.303c.117-.024.232-.05.347-.079l1.1.917a.411.411 0 0 0 .4.075.424.424 0 0 0 .277-.3l.33-1.39c.109-.048.22-.097.327-.148l1.255.683a.418.418 0 0 0 .62-.353l.051-1.43c.098-.066.196-.136.292-.207l1.366.425c.139.044.29.012.4-.085a.415.415 0 0 0 .138-.383l-.228-1.414c.082-.085.164-.172.245-.26l1.424.152a.42.42 0 0 0 .436-.564l-.501-1.342c.065-.099.127-.2.19-.3l1.424-.13a.418.418 0 0 0 .318-.638l-.751-1.217c.044-.111.086-.222.13-.337l1.37-.405a.418.418 0 0 0 .187-.687l-.975-1.044c.023-.118.045-.238.06-.357l1.265-.663a.421.421 0 0 0 .05-.715h.002zM30.241 71.286a.862.862 0 1 1 .127 1.212.862.862 0 0 1-.125-1.212h-.002zM20.96 81.302a.862.862 0 1 1 1.465-.91.862.862 0 0 1-1.465.91zm6.407 11.915a.86.86 0 0 1-1.098-.526.862.862 0 1 1 1.097.53l.001-.004zm12.306-1.513a.864.864 0 0 1 .147-1.718.864.864 0 0 1-.147 1.718zm1.095-2.563l-1.858-.161a.786.786 0 0 0-.85.715l-.175 2.058a10.574 10.574 0 0 1-4.222 1.484c-1.53.195-3.085.053-4.555-.416l-.683-1.948a.785.785 0 0 0-1.001-.482l-1.719.602c-.37-.297-3.975-3.008-3.975-8.084l1.739-1.05a.786.786 0 0 0 .267-1.08l-1.178-2.196c1.35-3.36 4.251-5.23 6.517-5.96l1.491 1.215a.786.786 0 0 0 1.104-.113l1.294-1.593a10.616 10.616 0 0 1 7.85 4.217l-.721 2.404a.786.786 0 0 0 .527.979l2.049.616c.077.341 1.049 5.846-1.9 8.793zm2.144-10.577a.862.862 0 1 1-1.651-.494.862.862 0 0 1 1.651.494zM10.25 87.772c-3.328 0-5.122-2.253-5.122-6.403 0-4.15 1.435-6.405 4.097-6.405 2.638 0 3.74 1.101 4.125 2.971v.104h3.56v-6.351l-3.28-.05-.026.614v.948a7.983 7.983 0 0 0-4.38-1.306C3.226 71.894 0 75.222 0 81.37c0 6.148 3.405 9.478 9.734 9.478 3.79 0 6.48-2.101 7.939-4.636l-2.664-1.536c-.762 1.33-2.276 3.096-4.76 3.096zm53.093-15.574l-3.585-.077-.05 3.306.614-.077c.668-.077 1.025-.128 1.487-.128v7.915l-8.915-11.016-2.358.077-3.587-.104-.05 2.486.616.18c.972.281 1.484.971 1.484 2.255v10.5c-.46 0-.816-.05-1.484-.13l-.616-.076.05 3.306 3.587-.05 3.586.05.05-3.306-.612.08c-.665.075-1.024.129-1.484.129v-8.095l9.041 11.17h.692c.104 0 3.075.077 3.075.077V75.222c.46 0 .817.05 1.485.128l.614.077-.05-3.306-3.588.077h-.002zm22.033-.307s-9.196.257-11.246.257h-6.121l-.128 3.356.614-.103c.668-.13 1.052-.18 1.51-.18v12.294c-.46 0-.818-.05-1.484-.153l-.616-.104.127 3.357s3.51-.077 4.535-.077c1.024 0 4.535.077 4.535.077l.126-3.357-.614.104c-.665.104-1.024.153-1.486.153v-4.481c2.075 0 3.253 1.716 4.15 3.252l1.23-.513v-7.019l-1.23-.769c-.894 1.538-2.023 2.998-4.15 2.998V75.22c4.61 0 7.173.203 7.788 4.097l3.02-.384-.56-7.043zM9.98 44.818c.128 0 4.105-.097 4.233-.097 5.153 0 8.557 2.642 8.557 6.84 0 3.754-2.96 6.14-7.286 6.711 3.944.635 5.185 3.784 7.316 3.784.541 0 1.114-.252 1.782-.476l.096 6.363c-1.049.38-2.227.636-3.341.636-3.085 0-4.295-2.545-5.822-4.996-1.271-2.066-2.893-4.04-5.09-4.422l-.38-.064v5.026c.574 0 1.019-.064 1.847-.157l.763-.097-.066 4.105-5.725-.097-6.362.097-.063-4.167.763.128c.826.157 1.908.191 2.482.191V48.792c-.574 0-1.592.063-2.417.222l-.826.192.064-4.169 9.476-.22zm.063 10.912c.605 0 1.24.03 1.846.03 2.926 0 4.517-1.144 4.517-3.658 0-2.193-1.526-3.468-4.548-3.468-.606 0-1.21.03-1.812.03v7.065h-.003v.001zm38.176-3.086v11.45c.574 0 1.654-.03 2.482-.19l.763-.127-.062 4.137-7 .32-1.75-3.528-7.158 2.834c-5.122 0-7-2.1-7-7.794v-7.1c-.573 0-1.654.032-2.482.194l-.762.127.062-4.168 6.363.097 3.5-.097c0 1.337-.317 2.61-.317 3.848v4.97c0 4.39.955 6.012 3.5 6.012l3.5-1.303v-9.675c-.574 0-1.019.064-1.847.158l-.762.096.065-4.103 5.728.096 3.499-.096c-.003 1.328-.322 2.6-.322 3.84v.002zm21.827 2.577h-3.754c0-1.685-2.229-3.181-4.36-3.181-2.066 0-3.18.478-3.18 1.4 0 3.34 12.882 1.812 12.882 9.259 0 3.626-3.34 5.564-9.543 5.564-1.877 0-4.199-.763-5.759-2.065l-.096 2.067-3.689.065v-7.382h4.104c.254 2.544 2.8 3.816 5.44 3.816 2.29 0 3.5-.509 3.5-1.43 0-3.18-12.409-1.751-12.409-9.26 0-3.594 3.12-5.535 8.91-5.535a7.62 7.62 0 0 1 4.485 1.432l.065-1.43 3.403-.065v6.745h.001zm11.74-6.333l3.85-.064.065 4.04-.764-.066a59.474 59.474 0 0 0-3.117-.126v8.908c0 1.973 2.1 2.29 3.435 2.29l.096 3.816c-.86.317-2.163.571-3.597.571-2.957 0-6.297-1.145-6.297-5.281V52.669c-.575 0-1.974.062-2.8.128l-.763.063.065-4.039 3.85.066.922-3.851h4.995l.06 3.852zM41.816 40.6c1.383 0 2.546 1.082 2.546 2.448 0 1.357-1.163 2.448-2.545 2.448-1.39 0-2.537-1.09-2.537-2.448 0-1.366 1.147-2.449 2.537-2.449h-.001zm27.883.777l1.402-.613h.992v4.579h-1.104v-3.539l-1.056.46-.234-.887zM27.202 40.6c.938 0 1.9.396 1.9 1.365 0 1.043-1.05 1.358-1.825 1.6-.68.218-1.076.445-1.076.858v.047h2.812v.873h-3.927v-.735c0-1.132.946-1.665 2.06-1.972.267-.073.856-.25.856-.662 0-.347-.403-.46-.767-.46-.662 0-1.107.315-1.567.702l-.605-.727c.589-.46 1.163-.889 2.14-.889zm29.47 0c.938 0 1.9.396 1.9 1.365 0 1.043-1.051 1.358-1.826 1.6-.68.218-1.075.445-1.075.858v.047h2.812v.873h-3.927v-.735c0-1.132.945-1.665 2.06-1.972.267-.073.856-.25.856-.662 0-.347-.404-.46-.767-.46-.663 0-1.107.315-1.567.702l-.607-.727c.59-.46 1.163-.889 2.141-.889zm-14.855.954c-.801 0-1.44.671-1.44 1.495 0 .807.639 1.503 1.44 1.503.784 0 1.445-.696 1.445-1.503 0-.824-.661-1.495-1.445-1.495z" fill="#F0ECE8"/>
    <path d="M94.39 18.243a3.883 3.883 0 0 0 3.034-1.442 3.916 3.916 0 0 0-.568-5.498 3.867 3.867 0 0 0-2.861-.855 3.883 3.883 0 0 0-2.628 1.422 3.916 3.916 0 0 0 .568 5.496c.7.571 1.56.876 2.456.876l-.002.001zm-2.283-5.772a2.925 2.925 0 0 1 2.291-1.086 2.959 2.959 0 0 1 2.283 4.815 2.938 2.938 0 0 1-4.143.427 2.965 2.965 0 0 1-.43-4.155v-.001zm-5.158 4.576c-8.853 2.85-16.658 8.656-21.976 16.35l-.608.88 45.44-5.75c1.128-.14 5.227-.124 9.083 1.773 2.572 1.267 6.99 4.232 7.699 9.838.519 4.094-1.808 8.31-6.908 12.54l-.52.43.824.497c3.565 2.142 5.716 3.433 7.82 10.202.455 1.252 2.324 2.103 4.274 2.103a6.21 6.21 0 0 0 1.478-.174c3.533-.856 5.015-3.164 4.523-7.051l-.25-1.97c-.017-.14.002-.207.01-.22 0 0 .022-.014.088-.024l4.737-.6-.025-.445a43.267 43.267 0 0 0-1.021-7.326l-.061-.27-8.417-2.53a2.655 2.655 0 0 1-1.773-3.299l2.93-9.789-.146-.191c-7.56-10.047-19.065-16.23-31.57-16.96l-.244-.014-5.3 6.529c-.446.55-1.078.89-1.778.964a2.628 2.628 0 0 1-1.938-.578l-6.126-4.992-.245.077zm8.41 6.443a3.573 3.573 0 0 0 2.424-1.313l4.99-6.148c12.045.773 23.125 6.727 30.47 16.373l-2.79 9.326a3.61 3.61 0 0 0 2.41 4.49l7.881 2.367a41.97 41.97 0 0 1 .91 6.448l-3.85.488a1.016 1.016 0 0 0-.787.48c-.134.222-.18.504-.14.833l.25 1.968c.552 4.368-1.74 5.502-3.798 6-2.013.49-4.264-.335-4.617-1.305-2.142-6.88-4.461-8.443-7.91-10.52 5.012-4.31 7.276-8.668 6.733-12.962-.766-6.052-5.48-9.226-8.224-10.578-4.09-2.01-8.333-2.025-9.626-1.862L66.39 33.054c5.125-7.013 12.396-12.32 20.608-15.02l5.722 4.66c.738.608 1.69.895 2.64.796zm43.477 20.547c.637 0 1.266-.158 1.84-.469a3.877 3.877 0 0 0 1.89-2.317 3.917 3.917 0 0 0-2.616-4.868 3.877 3.877 0 0 0-2.969.299A3.88 3.88 0 0 0 135.09 39a3.917 3.917 0 0 0 3.747 5.036zm-2.827-4.76a2.929 2.929 0 0 1 1.428-1.751 2.913 2.913 0 0 1 2.24-.227 2.956 2.956 0 0 1 .55 5.428 2.914 2.914 0 0 1-2.241.226 2.954 2.954 0 0 1-1.977-3.676zm-28.947 9.846c1.417-.935 2.07-2.182 1.889-3.61-.475-3.76-5.468-4.004-6.207-3.91l-14.59 1.845 1.116 8.823 13.56-1.715c.95-.12 2.766-.466 4.232-1.433zm-16.964 2.081l-.875-6.925 13.638-1.726c.589-.072 4.768.138 5.14 3.082.134 1.054-.36 1.96-1.467 2.69-.95.63-2.345 1.096-3.826 1.283l-12.61 1.596zm36.916 35.752a3.912 3.912 0 0 0 2.523 6.895c.917 0 1.795-.319 2.507-.92a3.913 3.913 0 0 0-2.18-6.885 3.87 3.87 0 0 0-2.85.91zm5.449 3.242a2.926 2.926 0 0 1-1.037 2.004 2.923 2.923 0 0 1-2.148.683 2.956 2.956 0 0 1-1.647-5.198 2.919 2.919 0 0 1 2.149-.683 2.951 2.951 0 0 1 2.683 3.194zm1.51-6.74a42.822 42.822 0 0 0 3.336-5.094l.59-1.058-1.154.37a2.78 2.78 0 0 1-.525.118l-17.035 2.158c-2.472.296-5.42-3.004-6.31-4.885-.538-1.045-1.42-3.66-2.127-5.76-.411-1.219-.766-2.276-.999-2.868-2.141-5.502-6.576-5.393-7.885-5.226l-11.287 1.43 1.09 8.612 10.471-1.326c.079-.01.134-.011.17-.014l1.514 11.973a1.362 1.362 0 0 1-.167.03L85.844 84.17v.965l17.931-2.268c.975-.124 1.05-.703 1.006-1.038l-1.528-12.094c-.045-.334-.253-.875-1.235-.754l-9.523 1.205-.85-6.714 10.336-1.308c1.134-.142 4.984-.236 6.873 4.626.226.574.579 1.616.984 2.825.757 2.24 1.61 4.784 2.175 5.879 1.012 2.143 4.319 5.792 7.29 5.41l16.648-2.107a42.773 42.773 0 0 1-2.586 3.873l-7.123-.611a3.561 3.561 0 0 0-2.626.832 3.584 3.584 0 0 0-1.267 2.452l-.677 7.932a41.353 41.353 0 0 1-16.39 5.706 41.335 41.335 0 0 1-17.68-1.564l-1.807-5.161H84.78l2.078 5.928.227.073a42.133 42.133 0 0 0 12.887 2.018c1.816 0 3.63-.116 5.431-.346a42.302 42.302 0 0 0 16.977-5.965l.208-.126.717-8.417a2.63 2.63 0 0 1 .932-1.8 2.62 2.62 0 0 1 1.927-.613l7.647.66.161-.21zm-53.108 9.167a3.91 3.91 0 0 0-1.41-.372h-.296c-.43.003-.86.06-1.276.208a3.914 3.914 0 0 0-2.39 4.98 3.881 3.881 0 0 0 1.994 2.23 3.892 3.892 0 0 0 2.98.165 3.913 3.913 0 0 0 .397-7.212l.001.001zm-.716 6.307a2.903 2.903 0 0 1-2.247-.123 2.953 2.953 0 0 1 1.275-5.615c1.252 0 2.367.793 2.78 1.975a2.962 2.962 0 0 1-1.808 3.764v-.001z" fill="#F5A78F"/>
  </g>
</svg>
