<svg width="492" height="432" viewBox="0 0 492 432" xmlns="http://www.w3.org/2000/svg" xmlns:xlink="http://www.w3.org/1999/xlink">
  <defs>
    <path d="M29.055.079C18.588-.315 0-.145 0 23.795 0 47.736 26.797 45.86 36.643 42.587c9.845-3.272 20.12-11.371 17.748-23.115C52.019 7.728 39.522.472 29.055.079z" id="prefix__mascot-lockup-a"/>
    <path d="M.57 10.233C.223 10-.518 2.383.57.953 1.658-.478 5.958-.3 6.436 1.505c.477 1.805-.99 8.477-1.432 8.799-.443.322-4.086.163-4.434-.072z" id="prefix__mascot-lockup-c"/>
    <path d="M.72 8.944C.077 5.165-.135 2.676.083 1.477c.328-1.8 2.871-1.8 4.274-.829.935.647.879 3.412-.169 8.296H.72z" id="prefix__mascot-lockup-e"/>
    <path d="M31.217 16.885c-9.738-1.304-18.298 1.558-25.68 8.586C-5.535 36.012.447 61.825 19.474 64.378 32.158 66.079 37.24 61.447 34.72 50.48c-.548 12.324.84 22.004 4.164 29.04 4.985 10.554-1.81 20.492 2.72 32.855 4.53 12.364 51.44 33.878 87.25 35.308 23.873.953 34.728-13.37 32.565-42.97 20.946-4.502 31.024-16.73 30.234-36.683-.79-19.953-6.552-30.238-17.288-30.853 2.877 8.726.74 15.013-6.41 18.863-10.726 5.775-27.381 2.08-31.97-14.245 9.786 2.356 17.803.817 24.05-4.618 9.37-8.152 7.185-23.54-4.701-28.841-11.887-5.302-18.685-.522-32.165-8.336-19.244 21.369-38.467 32.053-57.67 32.053-28.804 0-34.282-15.168-34.282-15.168z" id="prefix__mascot-lockup-g"/>
    <path d="M75.838 46.925c.558 6.67 4.798 7.56 4.798 12.443 0 3.256-.294 5.206-.882 5.852-1.682.01-2.8.135-3.355.377-.833.362-2.939 6.844-.833 10.03-3.095 2.095-2.085 4.752-9.901 6.091-7.816 1.34-27.43 7.234-36.516 11.489-9.085 4.254-10.476 1.99-14.926 4.123-4.45 2.134-3.244 11.498 5.841 25.221 9.085 13.724 5.104 25.602 1.286 32.861-3.818 7.26-11.683 4.415-14.188 10.094-2.649.738-5.753 4.144-6.765 6.884-.807 2.186-.384 7.198 1.268 15.034 2.383 2.24 5.463 3.888 9.24 4.947 5.665 1.59 45.394-2.489 52.11-4.947 6.715-2.457 9.61-12.058 9.61-15.034 0-2.975-33.541-57.802-35.721-61.69-1.454-2.593-2.064-4.405-1.83-5.438 1.41.689 2.311 1.033 2.7 1.033.39 0 .601-1.052.635-3.157 9.162.52 18.013-.126 26.553-1.937 12.81-2.718 21.043-6.284 25.882-4.01 4.84 2.273 6.007 21.762 7.259 28.188l4.533 13.72c-2.417 1.354-3.625 4.14-3.625 8.358 0 4.218.984 6.87 2.952 7.955-2.05 16.153-3.968 27.37-5.753 33.65-2.679 9.422-5.366 15.831-5.366 27.12-1.84 1.45-3.106 3.972-3.798 7.565-.692 3.593-.221 7.41 1.413 11.45 4.6 2.176 13.076 3.265 25.43 3.265 12.355 0 21.352-2.37 26.993-7.11.568-6.654.568-11.02 0-13.098-.568-2.077-1.63-3.404-3.185-3.98-1.184-8.246-3.268-15.547-6.253-21.903-4.476-9.533-12.286-34.893-12.286-38.048.83-3.187 1.244-5.922 1.244-8.205 0-2.283-.919-5.068-2.756-8.354 2.314-17.755 2.818-30.762 1.512-39.02-1.307-8.26-3.441-15.617-6.404-22.074-.856-11.187.775-19.241 4.892-24.165 4.117-4.923 9.853-12.13 17.208-21.62 4.456 1.255 8.676 1.673 12.66 1.256 5.975-.626 24.17 8.222 26.67 12.98-1.434 3.57-2.15 7.561-2.15 11.974 0 6.62 2.19 9.037 1.095 14.644-1.095 5.607-17.963 8.009-20.383 13.717-2.42 5.709-2.42 7.75-1.191 9.171 1.228 1.42 6.921 5.65 8.155 5.65 1.233 0 7.722-9.002 9.423-11.911 1.702-2.91 6.575 5.104 7.55 7.74.976 2.637.855 28.468.855 30.3 0 1.831.935 4.847 4.94 5.398 4.003.551 6.827-2.867 6.827-4.646 1.62 1.606 6.108 2.722 7.099 1.36.99-1.36 4.375-5.313 4.375-8.063 4.783.386 5.472-3.036 6.278-5.03.806-1.993-.8-11.412-6.278-22.56 1.207-2.585-.088-7.222-3.884-13.91l-2.846-.398c.916-2.057 1.242-3.55.979-4.482-.395-1.396-3.405-2.895-1.994-8.855 1.41-5.96 4.709-21.505 3.37-27.605-1.34-6.1-4.276-9.397-7.1-8.585-2.823.812-2.504 2.883-8.232 1.847-5.727-1.035-24.158-10.722-26.223-14.772-.972-2.362-3.952-5.47-7.542-6.65-3.59-1.18-4.96-5.172-8.29-7.133-5.052-2.977-26.112-3.091-63.179-.344-1.227 15.282-1.227 30.264 0 44.947z" id="prefix__mascot-lockup-i"/>
    <path d="M11.662 32.062l8.825-9.117a78.4 78.4 0 0 0-.573-11.279C19.21 5.867 13.577.878 7.01.1 1.427-.563-2.193 1.866 1.5 14.363c.793 2.687 4.181 8.587 10.162 17.7z" id="prefix__mascot-lockup-k"/>
    <path d="M7.86 2.59c1.427 1.798 7.158 3.287 17.192 4.465 15.05 1.767 19.77.255 19.77.255l-.027 8.085c-2.478.989-10.337 1.175-23.576.558C7.979 15.337.907 12.65 0 7.892L3.349 0 7.86 2.59z" id="prefix__mascot-lockup-m"/>
    <path d="M4.664 1.701C6.536.567 10.178 0 15.59 0s9.941 1.877 13.588 5.63c-5.343 10.815-9.6 16.433-12.77 16.853-3.17.42-8.64-4.425-16.408-14.533L4.664 1.7z" id="prefix__mascot-lockup-o"/>
    <path d="M22.322 0c3.04.856 5.97 1.322 8.79 1.4l-.001.55c-.27 23.616-.751 39.003-1.444 46.16-1.039 10.736-4.903 10.871-12.497 11.12-3.447.113-7.604-.121-12.473-.703C3.51 53.948 2.017 49.701.22 45.785-.635 34.598.996 26.543 5.113 21.62 9.23 16.697 14.966 9.49 22.322 0z" id="prefix__mascot-lockup-q"/>
    <path d="M59.965 40.13c-9.816-3.027-14.967-4.756-15.452-5.187-.728-.646-1.573-8.482-3.63-11.195-2.058-2.714-11.485-7.582-20.372-6.88S5.89 20.26 3.757 23.228c-2.134 2.97-4.993 11.715-1.24 13.812-3.154 2.886-3.643 10.635.26 13.168-.71 5.593 1.98 8.797 2.495 9.274.516.477 9.738 2.61 16.835 2.61 7.098 0 5.383-1.865 14.923-1.46 6.36.27 7.959-5.331 4.796-16.803l2.208-.216c.93 7.696 2.874 8.88 6.253 11.572 3.378 2.692 4.341 7.234 9.437 7.234 5.095 0 9.002-1.928 8.234-10.259-.512-5.554 3.527-14.288 12.116-26.202L73.968 0C66.172 2.473 61.45 5.852 59.803 10.137c-1.647 4.284.588 7.2 6.706 8.747.687 4.19.303 8.847-1.151 13.972-1.455 5.125-3.253 7.55-5.393 7.274z" id="prefix__mascot-lockup-s"/>
    <path d="M93.885 65.221c3.962-15.326 4.054-27.377.276-36.154-3.778-8.777-8.961-14.804-15.549-18.082.615-1.635.594-2.798-.062-3.488C77.565 6.462 64.26 0 53.078 0c-11.181 0-19.27 3.88-21.837 7.079-4.344 1.134-13.927 8.03-18.693 12.524C1.976 29.067-1.204 43.076.386 52.98c1.59 9.906 9.554 34.805 33.85 34.805 16.197 0 36.08-7.521 59.649-22.565z" id="prefix__mascot-lockup-u"/>
    <path d="M10.541 0C4.532 4.416 1.09 10.52.214 18.312c-.876 7.792.939 13.893 5.444 18.303C2.201 41.95.824 46 1.528 48.763c1.055 4.146 5.998 10.5 18.381 13.855 12.383 3.356 34.79-5.658 38.147-28.343 2.24-15.123 2.206-25.482-.1-31.078L10.541 0z" id="prefix__mascot-lockup-w"/>
    <path d="M22.14 0l40.607 2.73 1.71 2.859c-1.14 6.44-7.156 9.87-18.05 10.287-10.892.417-18.742 4.322-23.55 11.714L0 25.538C1.807 17.545 9.187 9.033 22.14 0z" id="prefix__mascot-lockup-y"/>
    <path d="M5.136 1.18C1.712 4.396 0 8.03 0 12.084c0 6.08 6.176 12.93 10.83 15.47.432 18.277 2.682 30.88 6.75 37.81 6.1 10.395 15.684 11.434 30.247 11.434 22.561 0 22.018-14.892 28.104-30.448 4.058-10.37 11.217-14.163 21.476-11.377-.885-7.174-5.646-11.774-14.283-13.799 4.473-9.05 6.45-16.107 5.933-21.174C69.56 11.387 51.846 17.081 35.914 17.081c-15.93 0-26.19-5.3-30.78-15.901z" id="prefix__mascot-lockup-A"/>
    <path d="M54.842 0c3.907 1.26 23.143 8.383 19.491 25.468-4.06 18.997-24.707 19.826-47.357 11.41C11.876 31.269 2.885 19.997 0 3.062l13.067.952c3.05 20.702 20.135 22.938 30.503 22.938 10.368 0 16.037-2.597 16.963-6.923.589-2.748-1.38-4.982-5.904-6.701.062-3.398.13-7.652.206-12.764z" id="prefix__mascot-lockup-C"/>
    <path d="M8.255 32.467c2.54-1.141 3.848-4.253 3.637-6.32l-2.694-1.44c-1.147-1.612-.67-5.216 1.428-10.814C13.304 6.751 20.43 5.836 24.754 3.85c.814-1.626.498-2.91-.948-3.85l-3.187.697c-6.108 1.44-11.27 4.49-15.482 9.149C.924 14.505-.27 20.083 1.555 26.58L0 29.868c2.796 2.95 5.547 3.816 8.255 2.6z" id="prefix__mascot-lockup-E"/>
  </defs>
  <g transform="translate(.375 1.905)" fill="none" fill-rule="evenodd">
    <g transform="translate(0 11)">
      <path d="M0 13.11c12.616 0 20.722-10.18 33.217-10.18 12.495 0 19.71 3.436 38.405 3.436s32.962-8.04 61.903-6.05L134 118.435c-28.542.298-38.97-7.173-60.391-7.173-21.422 0-29.862 3.587-42.585 3.587-12.723 0-15.746-9.214-31.024-9.214V13.109z" fill="#8C0B56"/>
      <path d="M35.926 64.535c1.354-1.039.613-5.106-2.223-12.2 6.765-3.692 10.782-7.144 12.051-10.357 1.904-4.82 3.829-13.375 1.915-14.833-1.915-1.458-11.125 4.973-13.966 9.903-2.298-.875 1.13-15.307 2.223-16.623 1.095-1.316-11.589-1.77-13.357 15.895-1.768 17.664 11.327 29.773 13.357 28.215zm56.336-8.225c0 1.861-4.282 6.543-2.504 8.36 1.778 1.817 11.29-6.208 13.167-19.624 1.877-13.416-6.72-25.182-9.944-25.182-3.223 0 .155 20.227-1.534 21.315-1.689 1.088-7.911-11.933-11.36-10.35-3.45 1.582-1.967 16.366 4.342 19.69 6.309 3.325 7.833 3.928 7.833 5.79zm-31.27-8.432C59.75 46.719 36.97 53.66 37.885 71.236c.916 17.576 18.815 19.518 20.071 18.339 1.257-1.18 4.28-40.539 3.036-41.697zm6.508.903c1.153-1.244 18.671 2.827 17.621 20.023C84.071 86 65.55 89.853 64.49 89.853s1.86-39.828 3.012-41.072zM23.923 84.335c.905.514 3.596-1.902 6.271-4.371 2.538-2.343 5.108-4.7 4.452-5.824-1.346-2.307-5.55-.45-8.224 2.092-2.674 2.541-4.262 7.101-2.499 8.103zm6.51 9.332c.955.599 2.868-2.22 4.596-4.655 1.728-2.434 4.015-3.838 3.36-4.961-1.347-2.308-5.667.318-7.238 2.532-1.571 2.213-1.673 6.486-.718 7.084zm9.171 6.703c1.508.498 2.372-2.183 3.548-4.17 1.176-1.987 2.994-4.548 1.772-5.684-1.221-1.137-4.604.233-6.041 3.697-1.438 3.465-.787 5.66.721 6.158zm36.101-12.484c-.991.73.07 3.208 1.12 5.858 1.05 2.649 1.131 4.514 2.874 4.221 1.744-.293 1.555-4.183.438-7.002-1.118-2.82-3.467-3.787-4.432-3.077zm8.122-5.453c-.78.602-.372 2.536 1.34 5.505 1.71 2.97 2.369 5.184 4.112 4.89 1.744-.293 1.137-5.11-.316-7.803-1.453-2.692-4.355-3.194-5.136-2.592zm4.381-8.038c-.963 2 2.458 2.636 5.127 5.103 2.67 2.467 4.983 5.407 6.16 4.186 1.177-1.222.584-4.708-2.897-7.695-3.481-2.986-7.426-3.593-8.39-1.594z" fill="#E54D3A"/>
    </g>
    <g transform="translate(305.217 33.427)">
      <path d="M56.257 24.54c0-23.406-42.353-19.817-49.794-.57-4.96 12.833-2.91 23.519 6.152 32.06-14.43 17.16-16.48 32.444-6.152 45.852 15.494 20.111 47.822 19.987 58.053 8.28 10.231-11.709 9.934-15.994 10.731-19.734.227 4.216-3.49 13.695 6.421 21.89-8.706 7.716-5.57 47.158 29.084 47.965 34.655.807 42.465-38.268 31.672-50.122 17.956 6.296 34.67 4.411 41.28-16.71 4.406-14.08 2.563-26.25-5.53-36.507 11.477-13.098 5.54-39.738-9.805-50.187-15.344-10.449-51.895-11.15-57.617 15.13-5.721 26.281-54.495 26.06-54.495 2.653z" fill="#292849"/>
      <path d="M79.805 87.92l-.025 1.356c-12.71 3.342-15.305 11.136-17.281 18.322-1.976 7.186 4.417 15.546 7.107 21.315 1.792 3.846 2.374 7.638 1.743 11.376 9.201 6.444 10.671 12.963 9.69 26.91-.982 13.947-19.763 32.96-35.94 36.134-10.784 2.116-22.996 2.116-36.636 0h0v-5.843c13.204 3.398 26.715 2.398 40.536-3.001 20.73-8.098 26.766-31.097 26.401-38.366-.243-4.847-1.9-8.248-4.973-10.204-1.684 9.074-13.275 16.737-25.328 13.469-12.052-3.268-10.908-17.553 0-20.618 7.272-2.043 14.678-2.043 22.218 0 .317-5.895-2.138-10.62-4.62-15.173l-.381-.7c-3.24-5.935-6.283-11.667-2.991-19.437 3.958-9.344 10.785-14.524 20.48-15.54h0zm-29.932 54.924c-9.382 2.36-5.795 13.07 3.96 11.761 6.503-.872 10.788-4.398 12.855-10.58-4.955-2.36-10.56-2.754-16.815-1.181z" stroke="#0F0B2A" stroke-width="1.5" fill="#939397"/>
      <path d="M34.724 56.747c3.725 1.687 5.728 4.632 6.011 8.837.283 4.204-.955 7.169-3.713 8.893 7.88 8.69 13.91 14.549 18.089 17.575 2.716-2.311 4.991-5.751 6.826-10.319 1.61-4.01 3.027-8.33 4.248-12.957-.554-.832-.82-1.956-.673-3.192.305-2.563 2.266-4.64 4.38-4.64 2.115 0 3.582 2.077 3.278 4.64-.305 2.562-2.266 4.64-4.38 4.64l-.181-.005c-3.037 9.269-5.446 15.59-7.228 18.963-1.83 3.462-3.94 5.706-6.33 6.73-9.233-7.495-14.553-12.222-15.957-14.179a266.377 266.377 0 0 0-4.37-5.912c-5.3.245-8.992-1.038-11.078-3.849-2.087-2.81-3.284-5.938-3.592-9.383l3.987-.81c.826 5.011 2.914 7.826 6.264 8.445 5.025.927 7.046-2.996 5.732-6.891-.875-2.596-2.117-4.146-3.723-4.649l2.41-1.937z" fill="#0F0B2A"/>
      <g transform="translate(70.45 45.618)">
        <path d="M0 5.017C.018 21.453 2.01 34.947 5.976 45.5c5.95 15.828 14.215 22.442 24.066 20.204 9.85-2.238 8.166-23.418 6.432-32.398C34.739 24.326 32.119 11.471 20.99 0L0 5.017z" stroke="#0F0B2A" stroke-width="2" fill="#DED7DA"/>
        <g transform="translate(6.627 6.697)" stroke="#0F0B2A" stroke-width="2">
          <path d="M0 39.197c2.066-14.903 20.371-14.903 29.823-8.757" stroke-linecap="round" stroke-linejoin="round"/>
          <path d="M9.259 27.562L2.465 0"/>
        </g>
        <g transform="translate(3.935 13.412)">
          <path d="M15.942.833l-.189-.044-.422-.081-.569-.096-.448-.07-.756-.107-.835-.107-.59-.068-.605-.064-.923-.083L9.99.067 9.385.032 8.796.01c-.674-.02-1.3-.01-1.822.038L6.15.129l-.843.094-.564.07-.557.074-.545.081-.528.088-.256.046-.49.097c-1.03.217-1.832.48-2.138.798-.254.264-.274 1.288-.173 2.549l.05.553.063.573.074.584.083.585.09.578.095.56.097.535.099.5.097.455.048.208.093.37.086.305c.028.089.054.165.079.227l.233.59.166.404c.402.94.922 1.846 1.832 2.162.33.114.823.226 1.428.318l.475.065.252.03.53.052c1.547.132 3.465.133 5.277-.151.412-.065.828-.14 1.24-.224l.616-.131.304-.07.6-.145.585-.152c.096-.025.19-.051.285-.078l.552-.158.266-.08.509-.161.475-.16.436-.156.393-.15c.494-.197.86-.375 1.05-.51.28-.202.326-1.017.25-2.034l-.045-.482-.059-.501-.072-.513a28.234 28.234 0 0 0-.04-.257l-.086-.512-.093-.5-.097-.479-.098-.45-.099-.41-.095-.363-.045-.16-.175-.56-.14-.422-.15-.422c-.433-1.19-.974-2.287-1.63-2.456z" fill="#0F0B2A"/>
          <path d="M8.008 1.895c-2.93.077-5.23.71-6.164 1.287-.548.337-.397 1.618-.095 2.814l.112.417.06.203.12.388.12.356.115.314.15.37.168.374.204.425.23.453.245.46c.374.684.766 1.314 1.025 1.551.106.098.487.164 1.033.204l.438.026.49.017.53.009.278.001.573-.002.884-.017.883-.03.57-.028.545-.032.508-.035.46-.04.404-.042c.248-.03.45-.06.593-.092l.359-.084.405-.105.44-.123.46-.136.468-.148.462-.156.444-.16c.718-.27 1.305-.548 1.489-.765.143-.169.082-.873-.08-1.775l-.1-.509-.114-.536-.128-.55-.138-.554-.143-.543-.146-.522-.143-.487-.14-.44a17.317 17.317 0 0 0-.065-.2l-.124-.349a3.038 3.038 0 0 0-.202-.454c-.185-.304-.95-.498-1.99-.616l-.46-.046-.242-.02-.502-.034-.521-.025-.81-.026a48.43 48.43 0 0 0-.273-.005l-.825-.007-1.083.008-.777.016z" fill="#8B0C57"/>
          <path d="M8.609 4.195c-1.545.04-2.757.375-3.249.678-.337.208-.173 1.093.035 1.794l.098.307h0l.093.263h0l.08.199h0l.132.287h0l.165.332c.235.457.519.943.69 1.1.073.067.388.106.82.124l.396.01h0l.435.001h0l.458-.006h0l.46-.015h0l.661-.032.203-.014.367-.03a4.8 4.8 0 0 0 .516-.07l.293-.07.166-.045.356-.103c.123-.036.247-.076.37-.116l.359-.126c.404-.149.74-.303.841-.424.078-.091.042-.483-.05-.978l-.078-.389h0l-.094-.409h0l-.104-.412h0l-.108-.396h0l-.107-.362-.052-.163-.095-.277a1.71 1.71 0 0 0-.114-.26c-.102-.167-.535-.27-1.118-.332l-.366-.032h0l-.393-.023h0l-.412-.015h0l-.42-.007h0l-.423-.001h0l-.615.008-.196.004z" stroke="#0F0B2A" stroke-width="1.5" fill="#FFFFFF" stroke-linejoin="round"/>
        </g>
      </g>
      <g transform="translate(55.22 7.668)">
        <mask id="prefix__mascot-lockup-b" fill="white">
          <use xlink:href="#prefix__mascot-lockup-a"/>
        </mask>
        <use fill="#DED7DA" xlink:href="#prefix__mascot-lockup-a"/>
        <path d="M57.734 25.655c-7.165 5.564-14.93 8.347-23.293 8.347s-14.042-1.91-17.037-5.73c-1.142 3.643-4.13 4.73-8.963 3.26-4.833-1.47-6.974-8.124-6.422-19.964-9.11 21.748.59 34.177 29.099 37.289 8.5.552 17.371-7.182 26.616-23.202z" fill="#BFB5BB" mask="url(#prefix__mascot-lockup-b)"/>
        <path d="M26.081 0C15.24 12.568 13.832 27.548 20.644 44.627" stroke="#0F0B2A" stroke-width="2" mask="url(#prefix__mascot-lockup-b)"/>
        <path d="M29.055.079C18.588-.315 0-.145 0 23.795 0 47.736 26.797 45.86 36.643 42.587c9.845-3.272 20.12-11.371 17.748-23.115C52.019 7.728 39.522.472 29.055.079z" stroke="#0F0B2A" stroke-width="2" stroke-linejoin="round"/>
        <g transform="translate(28.693 13.63)">
          <path d="M.05 8.503c.213 2.536 1.506 6.671 2.535 6.97 1.028.3 6.335.3 6.727 0 .393-.299 2.247-5.06 2.247-9.445C11.559 1.643 9.93 0 4.999 0 .07 0-.158 6.007.05 8.503z" fill="#0F0B2A"/>
          <g transform="translate(2.782 3.084)">
            <mask id="prefix__mascot-lockup-d" fill="white">
              <use xlink:href="#prefix__mascot-lockup-c"/>
            </mask>
            <use fill="#DED7DA" xlink:href="#prefix__mascot-lockup-c"/>
            <path d="M-1.114 4.888a14.885 14.885 0 0 1 8.113-.412l.3-6.353H-.583l-.531 6.765z" fill="#938D93" mask="url(#prefix__mascot-lockup-d)"/>
          </g>
        </g>
        <g transform="translate(3.796 13.405)">
          <path d="M.256 6.827c.918 4.697 2.044 6.61 2.447 6.828.402.218 4.71.156 4.936 0 .226-.156 1.88-4.788 1.88-8.808S8.733 0 4.812 0-.661 2.13.256 6.827z" fill="#0F0B2A"/>
          <g transform="translate(2.642 2.738)">
            <mask id="prefix__mascot-lockup-f" fill="white">
              <use xlink:href="#prefix__mascot-lockup-e"/>
            </mask>
            <use fill="#DED7DA" xlink:href="#prefix__mascot-lockup-e"/>
            <path d="M-1.664 4.73a14.885 14.885 0 0 1 8.114-.413l.3-6.353h-7.883l-.53 6.765z" fill="#938D93" mask="url(#prefix__mascot-lockup-f)"/>
          </g>
        </g>
      </g>
      <path d="M102.283 55.14c1.727 0 3.355 1.27 4.136 3.047 15.084-1.526 23.443-2 25.077-1.426 1.717.604 4.27 5.693 7.659 15.267 4.557-.597 7.598.373 9.121 2.913 1.524 2.539 1.684 5.786.48 9.74l-2.06.05c-.306-1.147-.966-2.883-1.983-5.21-1.524-3.488-5.931-2.133-9.23-1.505-2.198.419-2.747 2.851-1.644 7.297h-1.643c-1.512-.655-2.398-2.649-2.657-5.981-.26-3.333 2.149-5.614 7.226-6.841l-7.226-12.71c-4.618.928-8.202 1.392-10.752 1.392H106.85c-.277 1.882-1.623 3.247-3.414 3.247-2.21 0-4.258-2.077-4.576-4.64-.318-2.562 1.215-4.64 3.424-4.64z" fill="#0F0B2A"/>
      <path d="M70.427 145.919c-1.114-.813-2.493-1.505-4.135-2.078m6.175-2.741c-1.114-.812-2.643-1.548-4.585-2.208" stroke="#0F0B2A" stroke-width="1.5" stroke-linecap="round" stroke-linejoin="round"/>
    </g>
    <g transform="translate(83)">
      <g transform="translate(0 207.148)">
        <path d="M1.703 219.563l16.831-11.577 4.23-18.916 10.672-6.197 1.056-17.272 12.49-7.852 63.828-.24 5.02 5.743-.107 23.493 20.45-5.655 46.526-3.161 15.512 5.038 7.519 12.13 11.297 2.328 6.344 7.75 7.146 16.356L0 221.947l1.703-2.384z" fill="#FDBD87"/>
        <path d="M132.374 204.438c-2.059 2.008-2.479 4.025-1.26 6.05 1.827 3.04 18.787 7.236 37.146 5.799 11.961-.936 17.194-5.691 20.445-9.788 1.738-2.19 3.006-21.507-6.54-20.043-4.233-1.479-20.83 4.515-49.79 17.982zm-14.446-5.835c-.085-3.415 1.39-5.926 4.422-7.532 4.548-2.41 13.624-2.862 13.624-2.862l.043-6.634-10.164 3.004-10.383.594-.13 8.897 2.588 4.533zm82.078 2.912c3.318 4.055-1.203 11.325 4.974 11.325 6.176 0 5.384-10.122 17.326-9.052l-7.504-7.558-9.011-1.248c-2.059 2.62-3.987 4.799-5.785 6.533z" fill="#F79D6C"/>
        <path d="M190.769 190.497c2.466 1.466 4.234 3.247 5.303 5.342 1.07 2.095 1.415 4.388 1.039 6.879 4.397-2.002 7.02-4.295 7.869-6.88l-7.131-12.725-2.546 4.2-4.534 3.184zM41.851 163.008c2.037 3.568 6.038 5.6 12.005 6.098-.291.112-4.586 5.013 3.595 6.892 8.181 1.878 8.515-2.859 13.13-5.488 4.615-2.629 12.825-1.6 25.034-3.394 12.21-1.794 18.733-4.763 18.733-4.763l-3.92-4.162-63.72.725-4.857 4.092zm26.146 22.411l33.515-14.629c2.14 9.339-3.887 12.15.63 19.345l-10.716 3.973.168 11.286c-.843 2.536-4.648 7.194-11.892 5.863-7.244-1.33-7.84 4.286-12.575 3.415.652-6.768.942-16.52.87-29.253zm-21.134 17.107c-3.218 10.579 5.106 16.704 10.588 14.755-1.632-4.528-1.84-10.448-.62-17.759l-9.968 3.004z" fill="#F79D6C"/>
        <path d="M181.792 178.956c8.875 2.225 13.823 3.76 14.843 4.607 1.531 1.27 5.015 9.561 7.124 11.264 2.108 1.702 10.936 2.805 12.794 3.78 1.858.976 6.881 7.075 8.15 7.24 1.269.165-5.725-8.78-7.903-10.04-2.178-1.259-8.237-1.264-11.062-3.281-2.825-2.017-5.01-9.148-7.826-10.879-1.878-1.154-7.251-2.666-16.12-4.538v1.847z" fill="#0F0B29"/>
        <path d="M196.021 183.13c-.277 1.9-.756 3.099-1.436 3.598-1.02.75-3.993 3.17-3.993 3.753 0 .583 4.484-1.717 5.43-2.346.944-.629 2.096-3.589 2.634-3.589.359 0-.52-.472-2.635-1.416zm8.191 11.462c-1.32 2.264-2.367 3.734-3.14 4.41-1.158 1.016-3.627 2.624-4.828 3.98-1.202 1.355 4.252-1.187 5.79-2.3 1.54-1.112 3.198-3.634 5.367-4.343 1.446-.472.383-1.055-3.19-1.747zm-94.066-34.647c2.169 1.878 3.811 3.714 4.926 5.507 1.672 2.69-1.553 28.013-.55 30.622 1.003 2.61 9.255 8.038 10.84 7.118 1.195-.694-5.794-2.128-8.457-7.759-.869-1.836-.356-4.556-.16-7.268.793-11.026 2.085-19.483 0-23.604-1.196-2.362-4.095-5.993-6.486-6.568-.26-.062-.298.588-.113 1.952z" fill="#0F0B29"/>
        <path d="M116.152 186.65c5.872-.232 9.567-.573 11.082-1.023 1.516-.449 5.114-1.573 10.793-3.371v-3.106c-6.692 2.596-10.708 3.997-12.048 4.204-1.34.206-4.743.385-10.21.536l.383 2.76z" fill="#0F0B29"/>
        <path d="M235.772 9.094l-1.375 60.595c-1.8-14.57-1.36-23.09-1.89-24.039-.177-.314-1.123-.658-2.56-1.235l-.803-.325.203-.837c.287-1.191 2.34-9.804 4.105-19.57a376.176 376.176 0 0 0 2.32-14.589h0zM233.98-7.027c3.041 8.586 3.675 18.115 1.877 28.588-.119.693-.24 1.383-.363 2.067h0l-2.174 12.13z" stroke="#0F0B29" stroke-width="2" stroke-linecap="round" stroke-linejoin="round"/>
        <path d="M221.82 44.28c2.748-2.256 6.415-2.675 11.054-1.075h0l-5.971 3.968c-2.768.55-4.52.644-5.282.423a2.795 2.795 0 0 1-.494-.206c-.631-1.764-.203-2.375.692-3.11z" stroke="#0F0B29" stroke-width="2" stroke-linecap="round" stroke-linejoin="round"/>
        <path d="M47.798 157.508c-7.995 4.058-12.618 6.708-13.868 7.95-1.875 1.865-2.287 16.593-2.287 17.833 0 1.24-6.844 3.409-10.23 6.45-3.387 3.041-2.814 17.255-3.561 17.978-.747.722-14.811 10.17-16.342 12.01-1.53 1.838 16.541-8.815 17.769-9.706 1.228-.891 4.099-16.211 4.099-17.977 0-1.766 10.049-5.48 10.811-6.783.763-1.304.302-16.646 1.734-18.205.857-.932 5.702-2.785 11.493-7.96.445-.399.573-.928.382-1.59z" fill="#0F0B29"/>
        <path d="M91.655 205.579c4.878.803 8.532.444 10.961-1.078 3.644-2.283 3.413-3.677 4.31-6.716l-.016-6.574-2.549 2.897-3.84 1.456-5.627-.391-2.432-1.108-.64 1.152-.541 5.106.374 5.256z" fill="#F79D6C"/>
      </g>
      <g transform="translate(66.48 139.24)">
        <mask id="prefix__mascot-lockup-h" fill="white">
          <use xlink:href="#prefix__mascot-lockup-g"/>
        </mask>
        <path stroke="#0F0B29" stroke-width="2" d="M122.973-1.278c.228.138.46.276.697.413 7.309 4.236 12.61 4.673 17.86 5.117 4.415.374 8.796.756 14.211 3.17 6.234 2.781 9.938 8.19 10.882 13.981.96 5.891-.936 12.182-5.932 16.529-6.108 5.314-13.843 7.083-23.233 5.213 2.215 6.305 6.417 10.436 11.285 12.605 6.104 2.72 13.237 2.371 18.738-.59 3.317-1.786 5.498-4.12 6.492-7.045 1.01-2.97.798-6.513-.558-10.625a28.79 28.79 0 0 0-.475-1.335c.486-.013.98-.005 1.482.024 5.711.327 10.118 3.204 13.19 8.684 2.938 5.244 4.637 12.947 5.04 23.127.407 10.265-2.013 18.527-7.193 24.812-5.026 6.098-12.674 10.351-22.982 12.704.956 14.686-1.348 25.586-6.78 32.754-5.602 7.39-14.534 10.915-26.883 10.422-17.06-.681-36.626-5.886-52.983-12.505-18.481-7.479-32.737-16.828-35.166-23.458-2.295-6.264-1.782-11.92-1.264-17.35h0l.09-.95c.46-4.895.781-9.618-1.512-14.472-2.161-4.576-3.53-10.248-4.088-17.022l-.033-.418-.027.03c-.958.991-2.176 1.753-3.663 2.285l-.323.11c-2.645.866-6.142 1.022-10.504.437-4.489-.602-8.284-2.44-11.339-5.053C4.63 57.432 2.16 53.6.672 49.442c-1.6-4.462-2.068-9.296-1.333-13.72.708-4.261 2.53-8.14 5.509-10.976 7.618-7.253 16.454-10.197 26.501-8.852.215.029.429.06.64.092.096.367.168.56.168.56s.01.028.034.082l.033.077c.443 1.014 3.228 6.625 11.99 10.501 4.984 2.205 11.865 3.847 21.285 3.847 18.975 0 37.931-10.629 56.927-31.722l.547-.609z"/>
        <path d="M31.217 16.885c-9.738-1.304-18.298 1.558-25.68 8.586C-5.535 36.012.447 61.825 19.474 64.378 32.158 66.079 37.24 61.447 34.72 50.48c-.548 12.324.84 22.004 4.164 29.04 4.985 10.554-1.81 20.492 2.72 32.855 4.53 12.364 51.44 33.878 87.25 35.308 23.873.953 34.728-13.37 32.565-42.97 20.946-4.502 31.024-16.73 30.234-36.683-.79-19.953-6.552-30.238-17.288-30.853 2.877 8.726.74 15.013-6.41 18.863-10.726 5.775-27.381 2.08-31.97-14.245 9.786 2.356 17.803.817 24.05-4.618 9.37-8.152 7.185-23.54-4.701-28.841-11.887-5.302-18.685-.522-32.165-8.336-19.244 21.369-38.467 32.053-57.67 32.053-28.804 0-34.282-15.168-34.282-15.168z" fill="#B73D25" mask="url(#prefix__mascot-lockup-h)"/>
        <path d="M25.45 46.265c-4.006-1.037-6.446-3.265-7.32-6.685-1.313-5.13 1.93-9.297 6.148-9.926m113.962 13.68c-10.081-3.53-13.605-13.954-6.806-22.904 6.798-8.95 22.477-1.23 13.812 7.84" stroke="#0F0B29" stroke-width="2" stroke-linecap="round" stroke-linejoin="round" mask="url(#prefix__mascot-lockup-h)"/>
      </g>
      <g transform="translate(45.13 179.174)">
        <mask id="prefix__mascot-lockup-j" fill="white">
          <use xlink:href="#prefix__mascot-lockup-i"/>
        </mask>
        <use fill="#B6A99B" xlink:href="#prefix__mascot-lockup-i"/>
        <path d="M75.838 46.925c.558 6.67 4.798 7.56 4.798 12.443 0 3.256-.294 5.206-.882 5.852-1.682.01-2.8.135-3.355.377-.833.362-2.939 6.844-.833 10.03-3.095 2.095-2.085 4.752-9.901 6.091-7.816 1.34-27.43 7.234-36.516 11.489-9.085 4.254-10.476 1.99-14.926 4.123-4.45 2.134-3.244 11.498 5.841 25.221 9.085 13.724 5.104 25.602 1.286 32.861-3.818 7.26-11.683 4.415-14.188 10.094-2.649.738-5.753 4.144-6.765 6.884-.807 2.186-.384 7.198 1.268 15.034 2.383 2.24 5.463 3.888 9.24 4.947 5.665 1.59 45.394-2.489 52.11-4.947 6.715-2.457 9.61-12.058 9.61-15.034 0-2.975-33.541-57.802-35.721-61.69-1.454-2.593-2.064-4.405-1.83-5.438 1.41.689 2.311 1.033 2.7 1.033.39 0 .601-1.052.635-3.157 9.162.52 18.013-.126 26.553-1.937 12.81-2.718 21.043-6.284 25.882-4.01 4.84 2.273 6.007 21.762 7.259 28.188l4.533 13.72c-2.417 1.354-3.625 4.14-3.625 8.358 0 4.218.984 6.87 2.952 7.955-2.05 16.153-3.968 27.37-5.753 33.65-2.679 9.422-5.366 15.831-5.366 27.12-1.84 1.45-3.106 3.972-3.798 7.565-.692 3.593-.221 7.41 1.413 11.45 4.6 2.176 13.076 3.265 25.43 3.265 12.355 0 21.352-2.37 26.993-7.11.568-6.654.568-11.02 0-13.098-.568-2.077-1.63-3.404-3.185-3.98-1.184-8.246-3.268-15.547-6.253-21.903-4.476-9.533-12.286-34.893-12.286-38.048.83-3.187 1.244-5.922 1.244-8.205 0-2.283-.919-5.068-2.756-8.354 2.314-17.755 2.818-30.762 1.512-39.02-1.307-8.26-3.441-15.617-6.404-22.074-.856-11.187.775-19.241 4.892-24.165 4.117-4.923 9.853-12.13 17.208-21.62 4.456 1.255 8.676 1.673 12.66 1.256 5.975-.626 24.17 8.222 26.67 12.98-1.434 3.57-2.15 7.561-2.15 11.974 0 6.62 2.19 9.037 1.095 14.644-1.095 5.607-17.963 8.009-20.383 13.717-2.42 5.709-2.42 7.75-1.191 9.171 1.228 1.42 6.921 5.65 8.155 5.65 1.233 0 7.722-9.002 9.423-11.911 1.702-2.91 6.575 5.104 7.55 7.74.976 2.637.855 28.468.855 30.3 0 1.831.935 4.847 4.94 5.398 4.003.551 6.827-2.867 6.827-4.646 1.62 1.606 6.108 2.722 7.099 1.36.99-1.36 4.375-5.313 4.375-8.063 4.783.386 5.472-3.036 6.278-5.03.806-1.993-.8-11.412-6.278-22.56 1.207-2.585-.088-7.222-3.884-13.91l-2.846-.398c.916-2.057 1.242-3.55.979-4.482-.395-1.396-3.405-2.895-1.994-8.855 1.41-5.96 4.709-21.505 3.37-27.605-1.34-6.1-4.276-9.397-7.1-8.585-2.823.812-2.504 2.883-8.232 1.847-5.727-1.035-24.158-10.722-26.223-14.772-.972-2.362-3.952-5.47-7.542-6.65-3.59-1.18-4.96-5.172-8.29-7.133-5.052-2.977-26.112-3.091-63.179-.344-1.227 15.282-1.227 30.264 0 44.947z" fill="#B6A99B" mask="url(#prefix__mascot-lockup-j)"/>
        <path d="M35.097 107.086c-3.65-4.008-3.836-6.23-.558-6.665 4.918-.653 20.29.625 30.659-3.23 10.368-3.856 28.473-11.735 32.082-3.687 1.78 3.97 4.488 19.962 6.194 26.448 1.705 6.487 9.4 8.161 15.26 14.07 3.906 3.939 3.906 5.556 0 4.853H97.73l-62.633-31.789zm4.001 36.528c6.368-3.29 7.594-12.03 3.679-26.22l28.488 41.62-31.96-1.509-.207-13.891z" fill="#A29282" mask="url(#prefix__mascot-lockup-j)"/>
        <g mask="url(#prefix__mascot-lockup-j)">
          <g transform="translate(-8.181 119.952)">
            <path fill="#8B0C57" d="M28.245 27.505l23 24.057 37.114-5.587-6.718 30.798L0 77.127l2.271-40.874z"/>
            <path d="M45.788 59.728c-15.051.42-29.576-.004-39.863-7.229" stroke="#0F0B29" stroke-width="2" stroke-linecap="round" stroke-linejoin="round"/>
            <path d="M38.151-1.22c.964 2.951 1.853 5.653 2.667 8.104h0l.462 1.386c3.356 10.058 5.288 15.494 5.874 16.25.74.951 10.516 4.66 29.077 11.334h0L85.236 53.1C70.88 56.337 60.4 58.365 53.794 59.187c-3.25.404-5.688.604-7.312.604-.907 0-1.586-.066-2.039-.179a4.72 4.72 0 0 1-.525-.168c-3.48-9.19-7.072-15.164-11.59-18.756-5.172-4.112-7.556-6.824-7.615-8h0V2.533z" stroke="#0F0B29" stroke-width="2" fill="#766E65" stroke-linecap="round" stroke-linejoin="round"/>
          </g>
        </g>
        <path d="M58.339 80.553c3.069 3.019 5.216 5.387 6.45 7.098.652.906 1.062 1.653 1.253 2.229.137.414.175.77.147 1.064-1.262 1.756-6.69 3.314-12.085 4.319-4.58.853-9.02 1.306-10.322.853-2.081-.723-4.976-3.08-8.62-7.194h0z" stroke="#0F0B29" stroke-width="2" fill="#766E65" stroke-linecap="round" stroke-linejoin="round" mask="url(#prefix__mascot-lockup-j)"/>
        <g mask="url(#prefix__mascot-lockup-j)">
          <g transform="translate(9.778 95.756)">
            <mask id="prefix__mascot-lockup-l" fill="white">
              <use xlink:href="#prefix__mascot-lockup-k"/>
            </mask>
            <path d="M11.662 32.062l8.825-9.117a78.4 78.4 0 0 0-.573-11.279C19.21 5.867 13.577.878 7.01.1 1.427-.563-2.193 1.866 1.5 14.363c.793 2.687 4.181 8.587 10.162 17.7z" fill="#2C2842" mask="url(#prefix__mascot-lockup-l)"/>
            <path d="M-5.087 13.571C-1.257 10.25 3.459 8.59 9.062 8.59s9.995 1.188 13.177 3.565V-.711H-8.66l3.573 14.282z" fill="#FFFFFF" mask="url(#prefix__mascot-lockup-l)"/>
            <path d="M11.662 32.062l8.825-9.117a78.4 78.4 0 0 0-.573-11.279C19.21 5.867 13.577.878 7.01.1 1.427-.563-2.193 1.866 1.5 14.363c.793 2.687 4.181 8.587 10.162 17.7z" stroke="#0F0B29" stroke-width="2"/>
          </g>
        </g>
        <path d="M116.059 75.48c1.665.274 3.225 1.691 4.478 4.576 1.028 2.368 1.887 5.752 2.56 10.157 1.323 8.68.936 19.231-1.18 31.655-.122.718-.248 1.428-.377 2.129a59.3 59.3 0 0 0-1.367-1.645c-2.868-3.331-6.276-6.547-10.221-9.65h0l-.538-.42c.078-.22.14-.423.185-.606.403-1.627.376-5.228-.027-10.792-.426-5.886-2.34-13.304-5.719-22.259h0z" stroke="#0F0B29" stroke-width="2" fill="#766E65" stroke-linecap="round" stroke-linejoin="round" mask="url(#prefix__mascot-lockup-j)"/>
        <g mask="url(#prefix__mascot-lockup-j)">
          <g transform="translate(71.265 62.687)">
            <mask id="prefix__mascot-lockup-n" fill="white">
              <use xlink:href="#prefix__mascot-lockup-m"/>
            </mask>
            <path d="M7.86 2.59c1.427 1.798 7.158 3.287 17.192 4.465 15.05 1.767 19.77.255 19.77.255l-.027 8.085c-2.478.989-10.337 1.175-23.576.558C7.979 15.337.907 12.65 0 7.892L3.349 0 7.86 2.59z" fill="#766E65" mask="url(#prefix__mascot-lockup-n)"/>
            <path d="M11.915-3.266c1.427 1.8 7.157 3.288 17.191 4.466 15.051 1.767 19.771.255 19.771.255l-.027 8.084c-2.479.99-10.337 1.176-23.577.56-13.24-.617-20.312-3.305-21.219-8.063l3.35-7.891 4.51 2.59z" fill="#FFFFFF" mask="url(#prefix__mascot-lockup-n)"/>
            <path d="M7.86 2.59c1.427 1.798 7.158 3.287 17.192 4.465 15.05 1.767 19.77.255 19.77.255l-.027 8.085c-2.478.989-10.337 1.175-23.576.558C7.979 15.337.907 12.65 0 7.892L3.349 0 7.86 2.59z" stroke="#0F0B29" stroke-width="2"/>
          </g>
        </g>
        <path d="M172.034 47.035c6.45-2.877 13.944-8.038 14.957-19.576L153.49 8.91l-12.33 10.984-2.015 15.908 32.888 11.233z" fill="#B6A99B" mask="url(#prefix__mascot-lockup-j)"/>
        <g mask="url(#prefix__mascot-lockup-j)">
          <g transform="translate(83.373 150.45)">
            <path fill="#8B0C57" d="M0 48.033h65.094v44.34H0z"/>
            <path d="M8.002 69.639c6.853 3.346 16.304 4.436 28.354 3.272 18.075-1.747 19.538-6.375 18.171-10.956" stroke="#0F0B29" stroke-width="2" stroke-linecap="round" stroke-linejoin="round"/>
            <path d="M15.855 63.297c7.192-3.165 13.212-4.747 18.062-4.747 4.85 0 11.034 1.907 18.552 5.72-4.689-8.825-11.168-13.237-19.438-13.237s-13.995 4.088-17.176 12.264z" fill="#FFFFFF"/>
            <path d="M13.28-1h29.71c12.368 35.837 17.997 58.804 17.002 68.902a25.441 25.441 0 0 1-.39 2.525 49.951 49.951 0 0 0-1.412-2.032c-6.571-8.964-16.587-16.164-25.356-16.917-6.005-.516-14.291 5.97-24.959 18.826h0l-3.829-6.266L13.28-1z" stroke="#0F0B29" stroke-width="2" fill="#766E65" stroke-linecap="round" stroke-linejoin="round"/>
            <path d="M31.457 51.033c-.539-7.744-.808-13.47-.808-17.178s-.776-10.954-2.328-21.739" stroke="#0F0B29" stroke-width="2" stroke-linecap="round" stroke-linejoin="round"/>
          </g>
        </g>
        <g mask="url(#prefix__mascot-lockup-j)" stroke="#0F0B29" stroke-width="2">
          <g transform="translate(142.37 21.582)">
            <path d="M47.85-.704c.825-.416 1.719-.417 2.683.086.73.381 1.524 1.094 2.352 2.176h0l7.272 9.469 12.883 99.097-20.2 18.091-19.533-1.218-4.916-18.42-.88-23.203-7.562 9.28-17.336-7.147L5.34 65.991l10.21-6.341 7.76-6.716a478.72 478.72 0 0 0 2.536-14.547h0l.119-.763.177-1.154.23-1.542h0l.111-.773c.883-6.147 2.96-7.725 5.415-9.147l.309-.177c.103-.06.208-.118.312-.178 1.258-.713 2.62-1.473 3.945-3.035 3.963-4.673 5.837-7.662 8.074-16.38.882-3.44 2.072-5.318 3.312-5.943z" fill="#766E65"/>
            <path d="M42.568 51.294c-2.823-.699-5.138-.168-6.945 1.593-1.807 1.76-.324 2.264 4.45 1.51" stroke-linecap="round" stroke-linejoin="round"/>
            <path d="M11.155 61.533c5.03 5.443 7.868 8.165 8.514 8.165.97 0 5.876-8.619 7.578-8.619s8.46 5.68 10.256 10.507c1.796 4.825 1.281 27.4 2.113 28.487.554.725 3.511 1.355 8.871 1.89l1.019-4.333c3.612-.363 6.684-.092 9.217.813v-8.048h7.836v16.282l-28.718 16.988L0 74.055l11.155-12.522z" fill="#2C2842"/>
            <path d="M47.703 57.69c3.566-.375 6.798-.491 9.698-.351h0l7.874.483c.295 3.89.206 6.266-.129 7.708-.212.914-.532 1.512-.895 1.919-.497.557-1.096.81-1.786.89-1.253.144-2.992-.177-4.966-.57-1.708-.34-3.607-.722-5.5-.79-1.731-.062-4.033.183-6.173.407-3.065.32-5.772.464-6.579.005l-.193-.106-.122-.067c-.838-.46-1.312-.886-1.765-5.325a53.006 53.006 0 0 1-.06-.62c.35-.228.552-.345.552-.345s.015-.01.046-.027l.082-.046c.776-.43 4.975-2.646 9.916-3.165z" fill="#8B0C57"/>
            <path d="M46.98 7.675c1.835 4.181 2.293 10.108 1.376 17.779C46.98 36.96 42.82 51.375 42.82 51.375c2.62.775 3.968 1.607 4.045 2.497l.183 4.373" stroke-linecap="round" stroke-linejoin="round"/>
          </g>
        </g>
        <g mask="url(#prefix__mascot-lockup-j)">
          <g transform="translate(95.023 136.74)">
            <g transform="translate(0 2.008)">
              <mask id="prefix__mascot-lockup-p" fill="white">
                <use xlink:href="#prefix__mascot-lockup-o"/>
              </mask>
              <path d="M4.664 1.701C6.536.567 10.178 0 15.59 0s9.941 1.877 13.588 5.63c-5.343 10.815-9.6 16.433-12.77 16.853-3.17.42-8.64-4.425-16.408-14.533L4.664 1.7z" fill="#2C2842" mask="url(#prefix__mascot-lockup-p)"/>
              <path d="M1.746 8.71c3.476-3.322 7.756-4.983 12.841-4.983 5.085 0 9.072 1.188 11.96 3.565V-5.573H-1.497L1.746 8.71z" fill="#FFFFFF" mask="url(#prefix__mascot-lockup-p)"/>
            </g>
            <path d="M15.59 1c4.918 0 9.057 1.945 12.428 5.813-4.937 11.698-8.758 18.224-11.764 18.693-1.41.22-3.276-.985-5.644-3.188-2.611-2.427-5.75-6.146-9.42-11.15h0l4.284-7.521C7.243 1.807 10.66 1 15.59 1z" stroke="#0F0B29" stroke-width="2"/>
          </g>
        </g>
        <g mask="url(#prefix__mascot-lockup-j)">
          <g transform="translate(124.575 4.344)">
            <path d="M0 18.708c1.464 3.5 5.947 6.464 13.45 8.892l7.795.9c-2.971-3.159-2.758-6.497.639-10.015 3.397-3.519 8.174-5.563 14.33-6.132L26.98 0 6.05.738 0 18.708z" stroke="#0F0B29" stroke-width="2" fill="#766E65" stroke-linecap="round" stroke-linejoin="round"/>
            <path d="M5.349 19.397c-.814-.677 2.65-10.206 8.238-12.144 5.587-1.937 10.982.17 11.115.754.133.584-4.02 0-9.548 2.8-5.526 2.8-8.992 9.266-9.805 8.59z" fill="#FFFFFF"/>
          </g>
        </g>
        <path d="M75.838 46.925c.558 6.67 4.798 7.56 4.798 12.443 0 3.256-.294 5.206-.882 5.852-1.682.01-2.8.135-3.355.377-.833.362-2.939 6.844-.833 10.03-3.095 2.095-2.085 4.752-9.901 6.091-7.816 1.34-27.43 7.234-36.516 11.489-9.085 4.254-10.476 1.99-14.926 4.123-4.45 2.134-3.244 11.498 5.841 25.221 9.085 13.724 5.104 25.602 1.286 32.861-3.818 7.26-11.683 4.415-14.188 10.094-2.649.738-5.753 4.144-6.765 6.884-.807 2.186-.384 7.198 1.268 15.034 2.383 2.24 5.463 3.888 9.24 4.947 5.665 1.59 45.394-2.489 52.11-4.947 6.715-2.457 9.61-12.058 9.61-15.034 0-2.975-33.541-57.802-35.721-61.69-1.454-2.593-2.064-4.405-1.83-5.438 1.41.689 2.311 1.033 2.7 1.033.39 0 .601-1.052.635-3.157 9.162.52 18.013-.126 26.553-1.937 12.81-2.718 21.043-6.284 25.882-4.01 4.84 2.273 6.007 21.762 7.259 28.188l4.533 13.72c-2.417 1.354-3.625 4.14-3.625 8.358 0 4.218.984 6.87 2.952 7.955-2.05 16.153-3.968 27.37-5.753 33.65-2.679 9.422-5.366 15.831-5.366 27.12-1.84 1.45-3.106 3.972-3.798 7.565-.692 3.593-.221 7.41 1.413 11.45 4.6 2.176 13.076 3.265 25.43 3.265 12.355 0 21.352-2.37 26.993-7.11.568-6.654.568-11.02 0-13.098-.568-2.077-1.63-3.404-3.185-3.98-1.184-8.246-3.268-15.547-6.253-21.903-4.476-9.533-12.286-34.893-12.286-38.048.83-3.187 1.244-5.922 1.244-8.205 0-2.283-.919-5.068-2.756-8.354 2.314-17.755 2.818-30.762 1.512-39.02-1.307-8.26-3.441-15.617-6.404-22.074-.856-11.187.775-19.241 4.892-24.165 4.117-4.923 9.853-12.13 17.208-21.62 4.456 1.255 8.676 1.673 12.66 1.256 5.975-.626 24.17 8.222 26.67 12.98-1.434 3.57-2.15 7.561-2.15 11.974 0 6.62 2.19 9.037 1.095 14.644-1.095 5.607-17.963 8.009-20.383 13.717-2.42 5.709-2.42 7.75-1.191 9.171 1.228 1.42 6.921 5.65 8.155 5.65 1.233 0 7.722-9.002 9.423-11.911 1.702-2.91 6.575 5.104 7.55 7.74.976 2.637.855 28.468.855 30.3 0 1.831.935 4.847 4.94 5.398 4.003.551 6.636-3.037 7.937-4.318 1.62 1.606 4.998 2.394 5.989 1.033.99-1.361 4.375-5.314 4.375-8.064 4.783.386 5.472-3.036 6.278-5.03.806-1.993-.8-11.412-6.278-22.56 1.207-2.585-.088-7.222-3.884-13.91l-2.846-.398c.916-2.057 1.242-3.55.979-4.482-.395-1.396-3.405-2.895-1.994-8.855 1.41-5.96 4.709-21.505 3.37-27.605-1.34-6.1-4.276-9.397-7.1-8.585-2.823.812-2.504 2.883-8.232 1.847-5.727-1.035-24.158-10.722-26.223-14.772-.972-2.362-2.776-5.965-6.366-7.145-3.59-1.18-6.137-4.677-9.465-6.638-5.053-2.977-26.113-3.091-63.18-.344-1.227 15.282-1.227 30.264 0 44.947z" stroke="#0F0B29" stroke-width="2"/>
      </g>
      <g transform="translate(157.663 210.06)">
        <mask id="prefix__mascot-lockup-r" fill="white">
          <use xlink:href="#prefix__mascot-lockup-q"/>
        </mask>
        <path d="M22.322 0c3.04.856 5.97 1.322 8.79 1.4l-.001.55c-.27 23.616-.751 39.003-1.444 46.16-1.039 10.736-4.903 10.871-12.497 11.12-3.447.113-7.604-.121-12.473-.703C3.51 53.948 2.017 49.701.22 45.785-.635 34.598.996 26.543 5.113 21.62 9.23 16.697 14.966 9.49 22.322 0z" fill="#8B0C57" mask="url(#prefix__mascot-lockup-r)"/>
        <path d="M21.05-7.145V50.29c0 3.453 2.233 5.68 6.7 6.68" stroke="#0F0B29" stroke-width="2" mask="url(#prefix__mascot-lockup-r)"/>
        <path d="M22.322 0c3.04.856 5.97 1.322 8.79 1.4l-.001.55c-.27 23.616-.751 39.003-1.444 46.16-1.039 10.736-4.903 10.871-12.497 11.12-3.447.113-7.604-.121-12.473-.703C3.51 53.948 2.017 49.701.22 45.785-.635 34.598.996 26.543 5.113 21.62 9.23 16.697 14.966 9.49 22.322 0z" stroke="#0F0B29" stroke-width="2"/>
      </g>
      <g transform="translate(30.971)">
        <path d="M18.574 205.585c-.64.317 1.128 79.017 2.002 111.204.873 32.187 2.282 61.313 2.692 61.725 1.022 1.028 6.414 1.028 8.208 0 .717-.411-.438-9.49-2.31-61.725-1.871-52.235-3.394-110.655-3.878-110.974-.805-.53-5.647-.759-6.714-.23z" stroke="#0F0B29" stroke-width="2" fill="#B6A99B"/>
        <g transform="translate(.502 178.82)">
          <mask id="prefix__mascot-lockup-t" fill="white">
            <use xlink:href="#prefix__mascot-lockup-s"/>
          </mask>
          <path d="M59.965 40.13c-9.816-3.027-14.967-4.756-15.452-5.187-.728-.646-1.573-8.482-3.63-11.195-2.058-2.714-11.485-7.582-20.372-6.88S5.89 20.26 3.757 23.228c-2.134 2.97-4.993 11.715-1.24 13.812-3.154 2.886-3.643 10.635.26 13.168-.71 5.593 1.98 8.797 2.495 9.274.516.477 9.738 2.61 16.835 2.61 7.098 0 5.383-1.865 14.923-1.46 6.36.27 7.959-5.331 4.796-16.803l2.208-.216c.93 7.696 2.874 8.88 6.253 11.572 3.378 2.692 4.341 7.234 9.437 7.234 5.095 0 9.002-1.928 8.234-10.259-.512-5.554 3.527-14.288 12.116-26.202L73.968 0C66.172 2.473 61.45 5.852 59.803 10.137c-1.647 4.284.588 7.2 6.706 8.747.687 4.19.303 8.847-1.151 13.972-1.455 5.125-3.253 7.55-5.393 7.274z" fill="#B6A99B" mask="url(#prefix__mascot-lockup-t)"/>
          <path d="M75.091 15.512C70.62 33.48 66.392 45.646 62.41 52.011c-3.984 6.365-1.87 13.059 6.341 20.083L80.074 50.96l3.946-32.22-8.929-3.228z" fill="#A29282" mask="url(#prefix__mascot-lockup-t)"/>
          <path d="M-3.674 12.41h48.33l15 22.377c.077 12.448 2.836 18.028 10.07 25.275L52.97 72.795H-3.674V12.41z" stroke="#0F0B29" stroke-width="2" fill="#766E65" mask="url(#prefix__mascot-lockup-t)"/>
          <path d="M36.087 41.536H22.243c.57 3.757 1.274 6.088 2.114 6.992 1.26 1.357 5.122 3.522 8.564 2.268 2.295-.836 3.604-2.323 3.928-4.463l-.762-4.797z" fill="#2C2842" mask="url(#prefix__mascot-lockup-t)"/>
          <path d="M21.479 51.975c-.513 2.884-.364 4.973.447 6.268 1.216 1.943 3.033 3.26 6.334 3.81 3.302.551 4.44-4.12 4.113-6.416-.328-2.295-2.716-4.172-2.716-4.172l-4.71-1.783-3.468 2.293z" fill="#2C2842" mask="url(#prefix__mascot-lockup-t)"/>
          <path d="M17.393 39.17c-.191 2.434-.092 4.68.297 6.736.388 2.056 1.48 3.956 3.274 5.698l4.29-1.765c-1.638-1.97-2.458-4.241-2.458-6.817 0-2.575.211-5.07.634-7.486l-2.906 2.626-3.13 1.008z" fill="#2C2842" mask="url(#prefix__mascot-lockup-t)"/>
          <path d="M21.68 25.18c-.687 4.679-.381 8.81 2.858 11.32 4.265-1.633 7.162-5.512 7.162-8.172 0-3.99-10.02-3.148-10.02-3.148z" fill="#2C2842" mask="url(#prefix__mascot-lockup-t)"/>
          <path d="M30.227 51.173c1.022 1.194 1.652 2.502 1.888 3.924.354 2.132.608 3.831-.407 4.99-1.7 1.94-5.917 2.796-10.028 3.389m3.161-13.451c-7.516 3.66-17.587 2.869-30.213-2.371M21.68 25.785c-1.33 7.435-.32 10.927 3.03 10.475-2.383 1.294-2.638 3.629-2.333 5.58.717 4.59 1.272 9.333 7.035 9.333 3.56 0 6.12-.136 6.975-2.942.462-1.516.148-5.133-.942-10.853m9.757 16.124l-2.396-9.808 15.385 9.101 4.513-1.533" stroke="#0F0B29" stroke-width="2" stroke-linecap="round" stroke-linejoin="round" mask="url(#prefix__mascot-lockup-t)"/>
          <path d="M-3.606 35.322c10.173 4.216 17.122 4.542 22.088 3.293 4.81-1.21 12.147-4.337 13.045-9.009.897-4.671-5.148-7.3-11.85-7.3-8.338.062-8.281 4.231-1.304 3.24 6.977-.99 12.263-.197 13.099 2.272-.418-2.707-5.347-5.301-16.999-3.623" stroke="#0F0B29" stroke-width="2" stroke-linecap="round" stroke-linejoin="round" mask="url(#prefix__mascot-lockup-t)"/>
          <g mask="url(#prefix__mascot-lockup-t)">
            <g transform="translate(56.434 -5.13)">
              <path d="M.494 20.775c20.441 10.144 28.87 9.031 29.354 9.678L20.697 0C7.153 3.234-2.31 8.68.494 20.775z" stroke="#0F0B29" stroke-width="2" fill="#766E65" stroke-linecap="round" stroke-linejoin="round"/>
              <path d="M14.86 7.807c-.713-.292-7.113 2.843-9.987 8.601-.365.871 0 2.209.224 2.209.113 0 2.433-2.68 4.888-4.185 2.454-1.505 4.837-1.69 4.939-1.84.206-.305.651-4.493-.063-4.785z" fill="#FFFFFF"/>
            </g>
          </g>
          <path stroke="#0F0B29" stroke-width="2" stroke-linecap="round" stroke-linejoin="round" mask="url(#prefix__mascot-lockup-t)" d="M23.068 41.536h12.618m-18.387-2.282c-1.723 7.117 1.392 9.901 3.947 12.43-.708 3.692-1.496 8.103 4.782 10.447"/>
        </g>
        <path d="M60.467 218.95c-9.816-3.028-14.967-4.757-15.452-5.187-.727-.647-1.573-8.483-3.63-11.196-2.058-2.713-11.485-7.581-20.372-6.88-8.887.703-15.123 3.614-17.256 6.583-2.134 2.969-4.993 11.714-1.24 13.811-3.154 2.886-3.643 10.635.26 13.168-.71 5.593 2.092 9.258 2.608 9.735.516.477 10.24 2.39 17.338 2.39 7.097 0 5.383-1.867 14.923-1.462 6.36.27 8.169-5.484 5.427-17.264l.743.239c.93 7.696 3.594 8.425 6.973 11.118 3.379 2.692 4.341 7.234 9.437 7.234 5.095 0 9.002-1.928 8.234-10.26-.511-5.554 3.527-14.288 12.116-26.201l-5.202-27.889c-8.912 3.842-14.192 7.905-15.84 12.19-1.646 4.284.829 7.403 7.425 9.356.722 3.702.356 8.116-1.099 13.24-1.455 5.126-3.252 7.55-5.393 7.274z" stroke="#0F0B29" stroke-width="2" stroke-linejoin="round"/>
        <path d="M14.165.352c-.644.371.034 75.93.487 113.666.454 37.736 1.545 88.595 1.95 89.078 1.008 1.205 6.4 1.205 8.207 0 .723-.482-.376-27.836-1.566-89.078C22.053 52.776 21.356.996 20.877.622c-.799-.622-5.637-.89-6.712-.27z" stroke="#0F0B29" stroke-width="2" fill="#B6A99B"/>
      </g>
      <g transform="translate(92.022 85.634)">
        <mask id="prefix__mascot-lockup-v" fill="white">
          <use xlink:href="#prefix__mascot-lockup-u"/>
        </mask>
        <path d="M93.885 65.221c3.962-15.326 4.054-27.377.276-36.154-3.778-8.777-8.961-14.804-15.549-18.082.615-1.635.594-2.798-.062-3.488C77.565 6.462 64.26 0 53.078 0c-11.181 0-19.27 3.88-21.837 7.079-4.344 1.134-13.927 8.03-18.693 12.524C1.976 29.067-1.204 43.076.386 52.98c1.59 9.906 9.554 34.805 33.85 34.805 16.197 0 36.08-7.521 59.649-22.565z" fill="#B6A99B" mask="url(#prefix__mascot-lockup-v)"/>
        <path d="M10.545 24.893C5.9 29.67 3.732 37.068 4.042 47.088c.31 10.02 2.478 19.662 6.503 28.929l13.897 7.242 4.693-7.05-.46-51.558-18.13.242z" fill="#0F0B29" mask="url(#prefix__mascot-lockup-v)"/>
        <path d="M10.545 67.817C7.41 58.395 5.647 41.235 11.752 26.11L-3.9 24.893l-3.513 47.352 17.958-4.428z" stroke="#0F0B29" stroke-width="2" fill="#766E65" mask="url(#prefix__mascot-lockup-v)"/>
        <g mask="url(#prefix__mascot-lockup-v)">
          <g transform="translate(10.213 22.326)">
            <path d="M7.565 1.447l11.619 9.352L6.414 27.36c-5.026-2.278-7.042-5.267-7.367-8.198-.387-3.495 1.71-7.064 4.678-9.562 2.765-2.327 4.35-4.194 4.157-5.688h0l-.317-2.465z" stroke="#0F0B29" stroke-width="2" fill="#B73D25"/>
            <g transform="translate(5.156 3.29)">
              <g transform="translate(.138 .146)">
                <mask id="prefix__mascot-lockup-x" fill="white">
                  <use xlink:href="#prefix__mascot-lockup-w"/>
                </mask>
                <path d="M10.541 0C4.532 4.416 1.09 10.52.214 18.312c-.876 7.792.939 13.893 5.444 18.303C2.201 41.95.824 46 1.528 48.763c1.055 4.146 5.998 10.5 18.381 13.855 12.383 3.356 34.79-5.658 38.147-28.343 2.24-15.123 2.206-25.482-.1-31.078L10.541 0z" fill="#FDBD87" mask="url(#prefix__mascot-lockup-x)"/>
                <path d="M2.554 8.211c10.752 9.466 20.927 14.437 30.524 14.912 9.597.475 14.842-.009 15.733-1.452.904 13.997-1.798 23.255-8.109 27.775-6.31 4.52-15.155 8.303-26.535 11.349h37.309L70.819 41.45V6.766L7.4 2.01l-4.846 6.2z" fill="#FFA069" mask="url(#prefix__mascot-lockup-x)"/>
                <path d="M17.726 37.827c1.427 2.097 3.21 3.795 5.898 4.476" stroke="#0F0A29" stroke-width="2" fill="#FFFFFF" stroke-linecap="round" mask="url(#prefix__mascot-lockup-x)"/>
                <g mask="url(#prefix__mascot-lockup-x)" stroke="#0F0A29" stroke-linecap="round" stroke-width="2">
                  <g transform="translate(28.753 24.788)">
                    <path d="M10.005 9.35c1.918-1.92 2.877-3.863 2.877-5.827 0-1.684-2.504-2.527-7.511-2.527-2.38 0-4.506.843-4.9 1.402C.206 2.771.05 4.617 0 7.936" fill="#FFFFFF"/>
                    <path d="M.697 2.151c3.267-2.1 7.58-2.139 12.942-.117"/>
                  </g>
                </g>
                <path d="M9.177 34.138c-1.792-1.78-2.84-3.58-3.147-5.401-.262-1.561 1.555-2.342 5.451-2.342 1.852 0 3.638.781 4.032 1.3.263.345.672 2.056 1.228 5.132" stroke="#0F0A29" stroke-width="2" fill="#FFFFFF" stroke-linecap="round" mask="url(#prefix__mascot-lockup-x)"/>
                <path d="M15.392 27.674c-2.976-1.946-6.464-1.982-10.465-.108" stroke="#0F0A29" stroke-width="2" stroke-linecap="round" mask="url(#prefix__mascot-lockup-x)" transform="rotate(-2 10.16 26.93)"/>
                <path d="M38.852 34.395c3.467-1.416 6.703-1.97 9.707-1.662" stroke="#0F0A29" stroke-width="2" stroke-linecap="round" mask="url(#prefix__mascot-lockup-x)"/>
                <path d="M6.005 36.439c5.02-4.166 23.38-4.966 40.214.607" stroke="#0F0A29" stroke-width="2.5" stroke-linecap="round" mask="url(#prefix__mascot-lockup-x)"/>
              </g>
              <path d="M10.59 0C4.553 4.436 1.095 10.569.215 18.397c-.88 7.828.943 13.957 5.47 18.387-3.474 5.36-4.857 9.427-4.15 12.204C2.595 53.153 7.56 59.536 20 62.908c12.44 3.371 34.95-5.685 38.324-28.474 2.249-15.193 2.215-25.6-.101-31.222L10.59 0z" stroke="#0F0B29" stroke-width="2"/>
            </g>
            <path d="M31.097-1.5c10.83 0 25.423 5.258 43.755 15.923h0L64.188 31.59c-4.578-3.825-7.219-7.487-8.122-10.918-4.695 2.32-10.803 2.568-18.37.568-13.695-3.62-23.006-9.208-28.06-16.61-.24-.35-.471-.708-.695-1.072.325-.354.653-.666.986-.937C13.169-.019 20.167-1.5 31.097-1.5h0z" stroke="#0F0B29" stroke-width="3" fill="#B73D25"/>
          </g>
        </g>
        <path d="M78.612 38.76c-5.242 5.158-8.01 11.29-8.306 18.397-.443 10.66 6.89 15.12 9.779 15.999 1.925.586 7.773-1.994 17.542-7.74l2.513-16.979-21.528-9.678z" stroke="#0F0B29" stroke-width="2" fill="#B6A99B" mask="url(#prefix__mascot-lockup-v)"/>
        <g mask="url(#prefix__mascot-lockup-v)">
          <g transform="translate(23.115 -4.571)">
            <mask id="prefix__mascot-lockup-z" fill="white">
              <use xlink:href="#prefix__mascot-lockup-y"/>
            </mask>
            <path d="M22.14 0l40.607 2.73 1.71 2.859c-1.14 6.44-7.156 9.87-18.05 10.287-10.892.417-18.742 4.322-23.55 11.714L0 25.538C1.807 17.545 9.187 9.033 22.14 0z" fill="#8B0C57" mask="url(#prefix__mascot-lockup-z)"/>
            <path d="M44.456.838C17.452 4.571 9.346 13.15 7.331 21.638l-7.05.45L3.748.838h40.708z" fill="#FFFFFF" mask="url(#prefix__mascot-lockup-z)"/>
            <path d="M22.14 0l40.607 2.73 1.71 2.859c-1.14 6.44-7.156 9.87-18.05 10.287-10.892.417-18.742 4.322-23.55 11.714L0 25.538C1.807 17.545 9.187 9.033 22.14 0z" stroke="#0F0B29" stroke-width="2"/>
          </g>
        </g>
        <path d="M42.114 26.887c28.646 3.156 55.889 26.987 55.889 26.987l-.098-6.548C79.468 29.311 62.079 19.533 45.738 17.993c-16.341-1.54-31.841-.535-46.5 3.017l-.656 14.102c9.924-7.587 24.435-10.33 43.532-8.225z" stroke="#0F0B29" stroke-width="2" fill="#8B0C57" mask="url(#prefix__mascot-lockup-v)"/>
        <path d="M84.467 7.134C72.252 4.98 56.722 6.252 49.17 14.2" stroke="#0F0B29" stroke-width="2" stroke-linecap="round" stroke-linejoin="round" mask="url(#prefix__mascot-lockup-v)"/>
        <path d="M93.092 14.658l-.953-.069-1.812-.12-.859-.05-1.624-.08-.765-.03-1.088-.032-.686-.012-.655-.006h-.623l-.592.009-.56.015-.529.022-.497.03-.466.037-.434.044c-.14.016-.274.033-.402.052l-.371.059-.34.066c-.7.153-1.179.36-1.433.622-.106.109.003.326.287.64l.19.2.232.222.269.244.305.267.52.438.592.484 3.214 2.582 1.146.937.892.742.606.512.613.526.618.54.621.551.622.564.311.286.62.58.616.592.611.6c.202.203.403.407.603.612l.593.62.582.628.568.636c2.898 3.307 5.178 6.912 5.634 10.48.595-10.447-1.464-18.794-6.176-25.04z" fill="#FFFFFF" mask="url(#prefix__mascot-lockup-v)"/>
        <path d="M93.885 65.221c3.962-15.326 4.054-27.377.276-36.154-3.778-8.777-8.961-14.804-15.549-18.082.615-1.635.594-2.798-.062-3.488C77.565 6.462 64.26 0 53.078 0c-11.181 0-19.27 3.88-21.837 7.079-4.344 1.134-13.927 8.03-18.693 12.524C1.976 29.067-1.204 43.076.386 52.98c1.59 9.906 9.554 34.805 33.85 34.805 16.197 0 36.08-7.521 59.649-22.565z" stroke="#0F0B29" stroke-width="2"/>
      </g>
      <g transform="translate(168.76 130.756)" stroke-width="2">
        <path d="M11.805.144C5.749-.778 2.229 2.766.446 9.684c-1.783 6.916 1.912 13.57 8.677 14.098 6.765.528 10.584-7.253 10.548-12.422-.035-5.17-1.81-10.295-7.866-11.216z" stroke="#0F0B29" fill="#8B0C57"/>
        <path d="M4.23 8.752c.32-1.504.92-3.684 3.821-5.437" stroke="#FFFFFF" stroke-linecap="round" stroke-linejoin="round"/>
        <path d="M11.927 6.257c-2.09-.442-3.306 1.26-3.921 4.58-.615 3.322.66 6.517 2.995 6.77 2.335.253 3.653-3.482 3.641-5.964-.012-2.482-.625-4.943-2.715-5.386z" stroke="#0F0B29" fill="#8B0C57"/>
      </g>
      <g transform="translate(96.064 152.255)">
        <path stroke="#0F0B29" stroke-width="2" d="M89.824-1.613c.102.517.177 1.021.227 1.511.51 4.983-1.287 11.856-5.488 20.61 3.943 1.078 7.039 2.727 9.304 4.915 2.542 2.456 4.06 5.595 4.533 9.428.062.507.104 1.007.126 1.5a27.811 27.811 0 0 0-1.38-.413c-4.836-1.313-8.952-1.118-12.334.674-3.4 1.8-6.027 5.19-7.95 10.103-1.133 2.898-2.035 5.774-2.9 8.533-2.209 7.038-4.237 13.303-8.99 17.428-3.651 3.168-8.906 5.122-17.145 5.122-15.062 0-24.836-1.237-31.11-11.928-4.078-6.947-6.401-19.511-6.874-37.728-2.54-1.513-5.43-4.154-7.577-7.222C.32 18.142-1 15.023-1 12.084-1 7.767.798 3.882 4.451.451c.359-.337.72-.656 1.086-.956.159.43.331.86.516 1.287 2.2 5.082 5.76 8.894 10.679 11.435 5.01 2.589 11.408 3.864 19.183 3.864 15.783 0 33.325-5.665 52.637-16.945.428-.25.853-.5 1.272-.749z"/>
        <mask id="prefix__mascot-lockup-B" fill="white">
          <use xlink:href="#prefix__mascot-lockup-A"/>
        </mask>
        <use fill="#B6A99B" xlink:href="#prefix__mascot-lockup-A"/>
        <path d="M91.266 29.093C85.18 28.544 77.71 28.15 72.33 42.55c-3.586 9.6-6.326 17.586-8.22 23.955" stroke="#0F0B29" stroke-width="2" stroke-linecap="round" stroke-linejoin="round" mask="url(#prefix__mascot-lockup-B)"/>
        <path d="M-.03-3.61C2.828 12.206 14.84 20.1 36.006 20.077c21.167-.024 40.36-7.14 57.58-21.347L-.03-3.609z" stroke="#0F0A29" stroke-width="2" fill="#FFFFFF" stroke-linecap="round" mask="url(#prefix__mascot-lockup-B)"/>
        <path d="M4.2 23.398c6.138 6.403 18.77 9.604 37.893 9.604 19.125 0 34.018-5.052 44.68-15.156" stroke="#0F0B29" stroke-width="2" mask="url(#prefix__mascot-lockup-B)"/>
      </g>
      <g transform="translate(115.709 170.617)">
        <g transform="translate(18.165 45.36)">
          <mask id="prefix__mascot-lockup-D" fill="white">
            <use xlink:href="#prefix__mascot-lockup-C"/>
          </mask>
          <path d="M54.842 0c3.907 1.26 23.143 8.383 19.491 25.468-4.06 18.997-24.707 19.826-47.357 11.41C11.876 31.269 2.885 19.997 0 3.062l13.067.952c3.05 20.702 20.135 22.938 30.503 22.938 10.368 0 16.037-2.597 16.963-6.923.589-2.748-1.38-4.982-5.904-6.701.062-3.398.13-7.652.206-12.764z" fill="#B6A99B" mask="url(#prefix__mascot-lockup-D)"/>
          <path d="M57.715 22.611c5.095-3.985 6.95-9.836 3.745-14.465m-1.08 10.98c2.43-.5 3.64-2.635 8.28-.5 4.64 2.135 7.04 9.556 3.384 15.411" stroke="#0F0B29" stroke-width="2" stroke-linecap="round" stroke-linejoin="round" mask="url(#prefix__mascot-lockup-D)"/>
          <path d="M0 8.632c2.076 1.477 4.962 2.216 8.658 2.216 3.695 0 6.5-1.401 8.412-4.204V.891H-3.329L0 8.631z" stroke="#0F0B29" stroke-width="2" fill="#2C2842" mask="url(#prefix__mascot-lockup-D)"/>
          <path d="M5.63 21.738c4.115 1.67 7.389 1.946 9.82.826s3.185-3.97 2.26-8.55m-1.66 18.443c6.751 0 11.032.561 12.433-3.604.934-2.777.065-4.983-2.607-6.616M25.77 39.95c6.75 0 10.824.77 13.76-4.944 1.959-3.809 1.903-6.834-.166-9.074m2.49 17.322c7.836 0 12.566.977 15.975-6.277 2.273-4.835 1.769-11.094-5.411-15.239" stroke="#0F0B29" stroke-width="2" stroke-linecap="round" stroke-linejoin="round" mask="url(#prefix__mascot-lockup-D)"/>
        </g>
        <path d="M73.007 45.36c3.907 1.261 23.143 8.384 19.491 25.47-4.06 18.995-24.707 19.825-47.356 11.41-15.1-5.61-24.092-16.883-26.977-33.818h0l13.068.952c3.05 20.702 20.135 22.938 30.502 22.938 10.368 0 16.037-2.597 16.964-6.923.588-2.748-1.38-4.982-5.905-6.701.062-3.398.131-7.652.206-12.764z" stroke="#0F0A29" stroke-width="2"/>
        <g transform="translate(0 18.1)" stroke="#0F0B29" stroke-width="2">
          <path d="M5.002 27.054c1.649.765 9.798 3.006 17.684 3.643 6.188.5 12.497-.092 15.116-1.137 3.642-1.454 7.79-18.957 7.577-23.23-.214-4.271-9.273-4.992-22.85-5.948C8.952-.575 2.993.423.962 1.646-.112 2.293-.403 7.74.691 14.674c.973 6.174 2.926 11.736 4.311 12.38z" fill="#766E65"/>
          <path d="M11.36 5.422c-2.885.813-6.07 5.389-4.814 12.4 1.257 7.012 7.915 6.554 10.912 4.831 2.997-1.723 4.442-7.6 2.91-12.34-1.533-4.74-6.123-5.705-9.008-4.891z" fill="#8B0C57"/>
          <path d="M11.83 9.16c-1.236.468-2.6 3.096-2.062 7.123.538 4.027 3.39 3.765 4.675 2.775 1.284-.99 1.903-4.366 1.247-7.088-.657-2.723-2.624-3.277-3.86-2.81z" fill="#FFFFFF"/>
          <path d="M37.262 29.507c3.36-13.957 4.594-21.951 3.704-23.982-.89-2.03-5.483-3.641-13.78-4.834" stroke-linecap="round" stroke-linejoin="round"/>
        </g>
        <g transform="translate(24.512)">
          <mask id="prefix__mascot-lockup-F" fill="white">
            <use xlink:href="#prefix__mascot-lockup-E"/>
          </mask>
          <path d="M8.255 32.467c2.54-1.141 3.848-4.253 3.637-6.32l-2.694-1.44c-1.147-1.612-.67-5.216 1.428-10.814C13.304 6.751 20.43 5.836 24.754 3.85c.814-1.626.498-2.91-.948-3.85l-3.187.697c-6.108 1.44-11.27 4.49-15.482 9.149C.924 14.505-.27 20.083 1.555 26.58L0 29.868c2.796 2.95 5.547 3.816 8.255 2.6z" fill="#B6A99B" mask="url(#prefix__mascot-lockup-F)"/>
          <path d="M19.31-1.606l1.097 5.591 1.867 3.645-11.35 16.588-4.892 3.101-7.24-1.068-.669-17.204L7.922-6.46 19.31-1.606z" fill="#766E65" mask="url(#prefix__mascot-lockup-F)"/>
          <path d="M.44 25.903c1.546 1.427 3.544 1.796 5.994 1.106 2.45-.69 3.705-1.768 3.763-3.235M-.245 16.14c.622 2.701 2.265 4.343 4.93 4.928 2.665.584 4.44-.026 5.327-1.829M8.727 4.149c-1.522 2.092-1.372 3.853.451 5.284 1.823 1.432 3.797 1.7 5.921.808M2.552 9.806c.226 2.457 1.663 4.17 4.311 5.136 2.649.967 4.566.742 5.753-.674M14.945.048c-1.1 1.58-1.084 3.29.049 5.132 1.133 1.841 2.42 2.62 3.86 2.338m1.753-9.474c-1.18 1.52-1.254 3.23-.219 5.127 1.035 1.898 2.28 2.743 3.732 2.536" stroke="#0F0B29" stroke-width="2" stroke-linecap="round" stroke-linejoin="round" mask="url(#prefix__mascot-lockup-F)"/>
        </g>
        <path d="M32.767 32.467c2.54-1.141 3.848-4.253 3.638-6.32l-2.695-1.44c-1.147-1.612-.67-5.216 1.428-10.814 2.678-7.142 9.805-8.057 14.128-10.043.814-1.626.498-2.91-.948-3.85l-3.187.697c-6.108 1.44-11.269 4.49-15.482 9.149-4.213 4.659-5.407 10.237-3.582 16.734l-1.555 3.288c2.796 2.95 5.548 3.816 8.255 2.6z" stroke="#0F0B29" stroke-width="2" stroke-linejoin="round"/>
      </g>
      <path d="M235.545 306.66c2.293-10.741 2.918-19.383 1.875-25.926m8.86 10.829c0-3.637-.519-7.274-1.558-10.91" stroke="#0F0B29" stroke-width="2" stroke-linecap="round" stroke-linejoin="round"/>
      <path d="M41.133 379.328c-.125.568 11.175 7.095 13.737 8.473 2.563 1.379 10.546 4.267 11.404 5.378.859 1.11.616 12.511.616 16.66 0 4.15-.633 12.509 0 13.12.632.612 2.303-20.13 2.303-23.03 0-2.9-.494-6.823.893-7.274 1.386-.45 21.745-8.998 24.995-10.467 3.25-1.469 7.447-2.538 7.032-4.718-.415-2.18-11.729 3.85-14.713 5.252-2.983 1.401-13.696 6.033-20.117 8.195-4.634-2.422-26.025-12.158-26.15-11.59zm65.122 15.667c2.385 0 1.342 8.305 1.342 9.895 0 1.591-.878 4.219-1.278 4.219-.192 0-.17-2.594-.19-5.326l-.008-.947a87.668 87.668 0 0 0-.05-2.187c-.757 1.132-2.115 2.456-4.434 2.846-2.552.429-5.543.09-8.973-1.014-.286 1.064-.463 2.984-.592 4.904l-.04.615c-.166 2.658-.25 5.139-.418 5.139-.19 0-.58-2.818-.822-5.756l-.046-.589c-.168-2.255-.235-4.476-.042-5.445.46-2.319 13.165-6.354 15.55-6.354zm-.656 2.541c-.69-.314-7.853 2.114-11.078 3.442 3.06.683 5.345.806 6.859.37 1.516-.436 2.971-1.639 4.365-3.609-.043-.11-.092-.178-.146-.203z" fill="#0F0B29"/>
      <path d="M29.562 401.988c0 .576 15.98 9.162 18.25 9.162 2.272 0 9.661-4.018 9.661-4.88 0-.863-7.79 1.736-9 2.28-1.21.545-10.307-3.271-12.173-4.08-1.867-.81-6.738-3.059-6.738-2.482z" fill="#0F0B29"/>
      <path d="M40.71 397.726c-.113.413 7.971 4.482 9.852 5.697 1.881 1.214 6.087 3.822 6.801 2.896.714-.925-3.074-3.662-5.385-5.136-2.311-1.475-11.154-3.87-11.267-3.457z" fill="#0F0B29"/>
      <path d="M57.04 405.587c-1.093.244-2.037 5.262-2.037 9.894 0 4.632.944 8.528 2.037 8.926 1.092.398 0-4.698 0-9.403 0-4.706 1.092-9.66 0-9.417z" fill="#0F0B29"/>
    </g>
  </g>
</svg>
