<svg width="382" height="382" viewBox="0 0 382 382" xmlns="http://www.w3.org/2000/svg" xmlns:xlink="http://www.w3.org/1999/xlink">
  <defs>
    <circle id="prefix__planet-a" cx="189" cy="189" r="189"/>
    <circle id="prefix__planet-c" cx="189" cy="189" r="189"/>
  </defs>
  <g transform="translate(2 2)" fill="none" fill-rule="evenodd">
    <mask id="prefix__planet-b" fill="white">
      <use xlink:href="#prefix__planet-a"/>
    </mask>
    <use fill="#100C2D" fill-rule="nonzero" xlink:href="#prefix__planet-a"/>
    <path d="M260.49 352.209C247.273 237.2 436.177 255.904 339.153 44.294 294.52-53.046 207.933-17.49 107.11 5.859 6.288 29.206-26.042 118.675-9.686 217.387 34.477 483.917 273.707 467.22 260.49 352.211v-.002z" stroke="#0F0B29" stroke-width="1.719" fill="#130E2E" fill-rule="nonzero" mask="url(#prefix__planet-b)"/>
    <path d="M128.25 334.564c66.696-4.815 93.422-39.594 104.263-89.98 10.842-50.386 77.736-44.644 82.218-96.189 4.48-51.545-60.052-35.381-76.458-88.216-16.406-52.835 10.868-74.296-25.826-101.94-36.692-27.644-67.08-7.85-125.327 5.523-89.9 20.643-106.744 143.603-98.533 230.876C-1.356 301.54 61.554 339.38 128.249 334.564z" stroke="#0F0B29" stroke-width="1.719" fill="#171135" fill-rule="nonzero" mask="url(#prefix__planet-b)"/>
    <path d="M123.159 268.158c45.52-14.96 42.432-41.006 74.407-71.379 31.973-30.372 73.202-23.896 73.202-58.624s-64.869-24.19-59.902-73.817c4.967-49.628-38.669-56.611-83.884-46.23C55.41 34.54-.272 104.186 2.615 173.666c2.887 69.48 75.024 109.452 120.543 94.491h0z" stroke="#0F0B29" stroke-width="1.719" fill="#1B163C" fill-rule="nonzero" mask="url(#prefix__planet-b)"/>
    <path d="M95.462 234.058c42.904 0 95.92-64.102 93.538-95.032-2.382-30.93-29.881-15.873-42.99-32.745-13.107-16.872 26.18-48.843 9.567-65.322-16.612-16.48-53.674-6.514-69.105 4.241-22.235 15.497-40.825 33.47-57.478 93.827-16.655 60.356 23.562 95.031 66.467 95.031h0z" stroke="#0F0B29" stroke-width="1.719" fill="#222043" fill-rule="nonzero" mask="url(#prefix__planet-b)"/>
    <path d="M-18.143 172.844c15.694-15.996 31.225-22.13 46.591-18.4 23.052 5.592 5.98 41.475 40.733 53.348 34.752 11.873 77.88-19.535 81.665-53.349 3.785-33.813-31.565-11.841-39.387-40.677-7.822-28.836 34.226-40.932 20.263-60.312-13.964-19.38-37.684 6.9-58.63-2.081-13.964-5.987-17.367-17.096-10.207-33.329C22.597 39.46-1.918 61.643-10.66 84.596c-8.743 22.952-11.237 52.368-7.482 88.248h-.001zm307.945-87.67C236.971 43.948 249.234.748 273.627-32.224L436.177 71.58c-62.362 36.547-111.154 41.078-146.375 13.594h0z" stroke="#0F0B29" stroke-width="1.719" fill="#292849" fill-rule="nonzero" mask="url(#prefix__planet-b)"/>
    <use stroke="#0F0B29" stroke-width="2.578" fill-rule="nonzero" xlink:href="#prefix__planet-c"/>
  </g>
</svg>
